<svg width="30" height="30" viewBox="0 0 30 30" fill="none" xmlns="http://www.w3.org/2000/svg">
<path d="M29.9579 14.5938C29.958 14.594 29.9578 14.5937 29.9579 14.5938L24.2936 0.371355C24.1734 0.0691713 23.8309 -0.0783501 23.5287 0.0418607C23.5289 0.0417135 23.5285 0.0419343 23.5287 0.0418607L0.549451 9.19202C0.455741 9.2325 0.374472 9.29714 0.313888 9.37929C0.122787 9.47859 0.00206118 9.67514 0 9.89046V25.2021C0 25.5273 0.263684 25.791 0.588908 25.791H25.323C25.6483 25.791 25.9119 25.5273 25.9119 25.2021V16.8396L29.6291 15.3591C29.9312 15.2386 30.0784 14.896 29.9579 14.5938ZM24.7341 24.6132H1.17782V10.4794H24.7341V24.6132ZM9.82593 9.3045L19.6866 5.37531C20.5667 6.30033 21.7861 6.82608 23.0628 6.83109L24.0463 9.3045H9.82593ZM25.9119 15.5746V9.89046C25.9119 9.56524 25.6483 9.30155 25.323 9.30155H25.3136L24.0657 6.16739C24.0519 6.14125 24.0358 6.11637 24.0174 6.09318C23.9543 5.80955 23.6916 5.61602 23.402 5.63972C22.214 5.74801 21.0519 5.24759 20.3144 4.30997C20.1309 4.08346 19.8083 4.02715 19.5588 4.17806C19.5308 4.18137 19.5031 4.18652 19.4758 4.19337L7.43732 8.98708C7.29164 9.0442 7.17511 9.15749 7.11401 9.30155H3.45807L23.4173 1.35424L28.6462 14.4839L25.9119 15.5746Z" fill="white"/>
<path d="M2.77595 20.6375C3.91931 20.9755 4.81401 21.8691 5.15337 23.012C5.22779 23.2615 5.45725 23.4324 5.71754 23.4325C5.74809 23.4305 5.77842 23.426 5.80824 23.4189C5.83466 23.4264 5.86168 23.4319 5.88892 23.4354H20.0227C20.047 23.4322 20.071 23.4273 20.0946 23.4207C20.3888 23.4922 20.6853 23.3118 20.7569 23.0176C20.7571 23.0165 20.7574 23.0154 20.7577 23.0143C21.0961 21.8702 21.991 20.9754 23.1351 20.6369C23.4125 20.5521 23.5849 20.2756 23.5391 19.9891C23.547 19.9605 23.5526 19.9314 23.5562 19.902V15.1907C23.5527 15.1612 23.5468 15.132 23.5385 15.1035C23.5846 14.8169 23.4122 14.5403 23.1345 14.4557C21.9904 14.1173 21.0958 13.2221 20.7583 12.0777C20.673 11.7983 20.3938 11.6255 20.1057 11.6737C20.0785 11.6661 20.0508 11.6606 20.0227 11.6572H5.88892C5.85925 11.6608 5.82988 11.6666 5.80117 11.6749C5.51474 11.6293 5.23839 11.8016 5.15337 12.0789C4.81468 13.2228 3.9199 14.1173 2.77595 14.4557C2.4985 14.5405 2.3261 14.817 2.37196 15.1035C2.3643 15.1322 2.35878 15.1612 2.35547 15.1907V19.902C2.35885 19.9296 2.36438 19.957 2.37196 19.9838C2.32367 20.2722 2.49644 20.5517 2.77595 20.6375ZM3.53328 15.4298C4.71581 14.9548 5.65306 14.0176 6.12801 12.835H19.783C20.2582 14.0176 21.1957 14.9548 22.3783 15.4298V19.6629C21.1962 20.1383 20.2591 21.0754 19.7836 22.2576H6.12801C5.65254 21.0754 4.71544 20.1383 3.53328 19.6629V15.4298Z" fill="white"/>
<path d="M12.9553 21.0796C14.9068 21.0796 16.4888 19.4976 16.4888 17.5461C16.4888 15.5946 14.9068 14.0127 12.9553 14.0127C11.0038 14.0127 9.42188 15.5946 9.42188 17.5461C9.42379 19.4968 11.0046 21.0777 12.9553 21.0796ZM12.9553 15.1905C14.2563 15.1905 15.311 16.2452 15.311 17.5461C15.311 18.8471 14.2563 19.9018 12.9553 19.9018C11.6544 19.9018 10.5997 18.8471 10.5997 17.5461C10.5997 16.2452 11.6544 15.1905 12.9553 15.1905Z" fill="white"/>
</svg>
