<svg width="64" height="64" viewBox="0 0 64 64" fill="none" xmlns="http://www.w3.org/2000/svg">
<circle cx="32" cy="32" r="32" fill="#5EB18E"/>
<circle cx="32" cy="32" r="26" fill="#459171"/>
<path d="M31.5 20C24.5971 20 19 25.5964 19 32.5C19 39.4037 24.5971 45 31.5 45C38.4044 45 44 39.4037 44 32.5C44 25.5964 38.4044 20 31.5 20ZM36.1131 28.3372C37.1015 28.3372 37.9037 29.1394 37.9037 30.1277C37.9037 31.1161 37.1007 31.9182 36.1131 31.9182C35.1248 31.9182 34.3226 31.1161 34.3226 30.1277C34.3226 29.1394 35.1248 28.3372 36.1131 28.3372ZM26.8861 28.3372C27.8752 28.3372 28.6766 29.1394 28.6766 30.1277C28.6766 31.1161 27.8752 31.9182 26.8861 31.9182C25.8978 31.9182 25.0956 31.1161 25.0956 30.1277C25.0956 29.1394 25.8985 28.3372 26.8861 28.3372ZM38.2445 36.846C36.7131 39.0693 34.1912 40.3964 31.5 40.3964C28.8073 40.3964 26.2847 39.0693 24.7555 36.8453C24.4124 36.3474 24.5387 35.6657 25.0372 35.3226C25.5358 34.9788 26.2168 35.1058 26.5599 35.6044C27.681 37.2343 29.5285 38.2066 31.5007 38.2066C33.473 38.2066 35.319 37.2343 36.4431 35.6044C36.7861 35.1073 37.4664 34.981 37.9657 35.3234C38.4613 35.6664 38.5869 36.3474 38.2445 36.846Z" fill="#85DAB6"/>
</svg>
