<svg width="360" height="50" viewBox="0 0 360 50" fill="none" xmlns="http://www.w3.org/2000/svg">
<g clip-path="url(#clip0)">
<path d="M48.9934 32.8978C48.8673 32.2956 48.5518 30.711 48.394 29.9504L43.4095 5.13514C42.4315 1.77573 39.4976 0.476335 36.6899 0.0960247C30.3488 -0.791366 29.0554 4.81821 28.172 9.38193L27.6673 11.949L25.4905 22.5026L25.3012 23.4851L24.197 17.9389L23.6607 15.3718C23.4083 14.0407 23.0929 12.6146 22.6512 11.2835C22.7143 11.3152 22.7458 11.3152 22.7458 11.3152C21.7679 7.98746 18.8339 6.68807 16.0577 6.27607C9.65357 5.38867 8.39167 10.9983 7.47678 15.562L4.92143 28.3341L4.60595 29.9821C4.44821 30.7427 4.13274 32.3273 4.00655 32.9295C3.15476 37.2713 0 35.7501 0 35.7501C0.977976 39.1095 3.9119 40.4089 6.71964 40.7892C13.1238 41.6766 14.3857 36.067 15.3006 31.5033L15.6161 29.9187L17.225 38.0637C17.5089 39.4581 17.8244 40.9477 18.2976 42.3422L18.3292 42.3738C19.4333 45.3529 22.2095 46.5573 24.8595 46.9376C25.175 46.9693 25.4905 47.0009 25.7744 47.0326L25.8059 47.0643H25.8375C31.3899 47.2862 32.5887 42.0252 33.4405 37.6833L36.0274 24.7528L36.1851 23.9288L37.7309 31.535C38.6458 36.0987 39.9077 41.7083 46.3119 40.8209C49.1196 40.4406 52.022 39.1412 53.0315 35.7818C53 35.6867 49.8452 37.2397 48.9934 32.8978Z" fill="#7F7F7F"/>
<path d="M48.9934 32.8969C48.8672 32.2947 48.5518 30.7101 48.394 29.9495L43.4095 5.13425L42.3369 4.18347L39.2768 4.27855L31.169 9.41274C30.7905 9.9832 30.475 10.6171 30.2542 11.346C30.2542 11.346 33.4089 9.79305 34.2607 14.1349C34.3869 14.7371 34.7024 16.3217 34.8601 17.0823L35.1756 18.7303L36.0589 23.2307L37.7309 31.439C38.6458 36.0028 39.9077 41.6123 46.3119 40.7249C49.1196 40.3446 52.022 39.0452 53.0315 35.6858C53 35.6858 49.8452 37.2388 48.9934 32.8969Z" fill="url(#paint0_linear)"/>
<path d="M28.4875 39.4889C28.3613 38.8867 28.0458 37.3021 27.8881 36.5415L24.197 17.938L23.6607 15.3709C23.3768 13.9764 23.1559 12.4552 22.6512 11.0924L19.244 7.70129L10.6631 11.0924C11.3887 11.441 12.0827 12.2333 12.4298 13.9447C12.5559 14.5469 12.8714 16.1315 13.0292 16.8921L17.225 38.031C17.5089 39.4255 17.8244 40.915 18.2976 42.3095L25.8059 47L31.0744 42.5314C30.128 42.468 28.9607 41.8658 28.4875 39.4889Z" fill="url(#paint1_linear)"/>
<path d="M16.0577 6.2751C9.65357 5.38771 8.39167 10.9973 7.47678 15.561L4.92143 28.3331L4.60595 29.9811C4.44821 30.7417 4.13274 32.3264 4.00655 32.9285C3.15476 37.2704 0 35.7491 0 35.7491C0.977976 39.1086 3.9119 40.4079 6.71964 40.7883C13.1238 41.6756 14.3857 36.0661 15.3006 31.5023L17.8244 18.6986L18.1399 17.0506C18.2976 16.2899 18.6131 14.7053 18.7393 14.1032C19.5911 9.76128 22.7458 11.3142 22.7458 11.3142C21.7679 7.9865 18.8339 6.6871 16.0577 6.2751Z" fill="url(#paint2_linear)"/>
<path d="M36.7214 0.0950481C30.3488 -0.792342 29.0554 4.81723 28.172 9.38095L27.6673 11.948L25.4905 22.5017L22.7774 36.0977C22.6197 36.8584 22.3042 38.443 22.178 39.0451C21.3262 43.387 18.1399 41.8341 18.1399 41.8341C19.1179 45.1935 22.0833 46.4929 24.8595 46.8732C31.2637 47.7606 32.5256 42.151 33.4405 37.5873L36.0274 24.6567L38.8351 10.8705C38.9929 10.1099 39.3083 8.52526 39.4345 7.9231C40.2863 3.58122 43.4411 5.13416 43.4411 5.13416C42.4631 1.77475 39.5292 0.475358 36.7214 0.0950481Z" fill="url(#paint3_linear)"/>
<path d="M17.8244 18.6985L18.1398 17.0505C18.2976 16.2899 18.613 14.7052 18.7392 14.1031C19.1178 12.2332 19.9065 11.4726 20.6952 11.1874C19.7803 11.3141 18.7708 12.0114 18.3291 14.2299C18.2029 14.832 17.8874 16.4166 17.7297 17.1773L17.4142 18.8253L14.8589 31.5973C14.1333 35.2737 13.1553 39.6472 9.46423 40.7248C13.5023 39.8691 14.5119 35.3054 15.269 31.5023L17.8244 18.6985Z" fill="url(#paint4_linear)"/>
<path d="M38.9928 8.04985C38.8666 8.65201 38.5511 10.2366 38.3934 10.9973L35.5857 24.7835L32.9988 37.714C32.2732 41.3904 31.2952 45.764 27.6041 46.8415C31.6422 45.9858 32.6517 41.4221 33.4089 37.619L35.9958 24.6884L38.8035 10.9022C38.9613 10.1416 39.2767 8.55693 39.4029 7.95477C39.7815 6.08492 40.5702 5.3243 41.3589 5.03906C40.444 5.16583 39.4345 5.83138 38.9928 8.04985Z" fill="url(#paint5_linear)"/>
</g>
<path d="M68.632 24V11.136H72.28V12.96C73.352 11.584 74.616 10.896 76.072 10.896C77.784 10.896 78.992 11.576 79.696 12.936C80.864 11.576 82.272 10.896 83.92 10.896C85.296 10.896 86.36 11.304 87.112 12.12C87.88 12.92 88.264 14.088 88.264 15.624V24H84.616V16.824C84.616 15.08 83.904 14.208 82.48 14.208C81.792 14.208 81.248 14.432 80.848 14.88C80.464 15.328 80.272 15.976 80.272 16.824V24H76.624V16.824C76.624 15.08 75.912 14.208 74.488 14.208C73.8 14.208 73.256 14.432 72.856 14.88C72.472 15.328 72.28 15.976 72.28 16.824V24H68.632Z" fill="white"/>
<path d="M91.5086 9.71998V6.47998H95.3486V9.71998H91.5086ZM91.6046 24V11.136H95.2526V24H91.6046Z" fill="white"/>
<path d="M98.6788 24V11.136H102.327V12.96C103.399 11.584 104.655 10.896 106.095 10.896C107.471 10.896 108.543 11.32 109.311 12.168C110.079 13.016 110.463 14.184 110.463 15.672V24H106.815V16.824C106.815 15.976 106.623 15.328 106.239 14.88C105.855 14.432 105.311 14.208 104.607 14.208C103.903 14.208 103.343 14.432 102.927 14.88C102.527 15.328 102.327 15.976 102.327 16.824V24H98.6788Z" fill="white"/>
<path d="M113.704 9.71998V6.47998H117.544V9.71998H113.704ZM113.8 24V11.136H117.448V24H113.8Z" fill="white"/>
<path d="M120.442 24V21.432L127.09 14.088H120.658V11.136H131.626V13.704L124.954 21.048H131.626V24H120.442Z" fill="white"/>
<path d="M138.046 24.24C136.782 24.24 135.726 23.888 134.878 23.184C134.046 22.48 133.63 21.504 133.63 20.256C133.63 18.896 134.094 17.872 135.022 17.184C135.966 16.496 137.23 16.152 138.814 16.152C139.886 16.152 140.934 16.328 141.958 16.68V16.464C141.958 14.896 141.038 14.112 139.198 14.112C138.094 14.112 136.91 14.344 135.646 14.808L134.734 12.024C136.302 11.336 137.966 10.992 139.726 10.992C141.662 10.992 143.11 11.472 144.07 12.432C144.998 13.36 145.462 14.728 145.462 16.536V24H141.934V22.608C140.958 23.696 139.662 24.24 138.046 24.24ZM139.15 21.72C139.998 21.72 140.686 21.512 141.214 21.096C141.742 20.664 142.006 20.12 142.006 19.464V18.816C141.318 18.496 140.542 18.336 139.678 18.336C138.878 18.336 138.254 18.496 137.806 18.816C137.374 19.12 137.158 19.568 137.158 20.16C137.158 20.64 137.342 21.024 137.71 21.312C138.078 21.584 138.558 21.72 139.15 21.72Z" fill="white"/>
<path d="M148.673 9.71998V6.47998H152.513V9.71998H148.673ZM148.769 24V11.136H152.417V24H148.769Z" fill="white"/>
<path d="M155.843 24V11.136H159.491V12.96C160.563 11.584 161.827 10.896 163.283 10.896C164.995 10.896 166.203 11.576 166.907 12.936C168.075 11.576 169.483 10.896 171.131 10.896C172.507 10.896 173.571 11.304 174.323 12.12C175.091 12.92 175.475 14.088 175.475 15.624V24H171.827V16.824C171.827 15.08 171.115 14.208 169.691 14.208C169.003 14.208 168.459 14.432 168.059 14.88C167.675 15.328 167.483 15.976 167.483 16.824V24H163.835V16.824C163.835 15.08 163.123 14.208 161.699 14.208C161.011 14.208 160.467 14.432 160.067 14.88C159.683 15.328 159.491 15.976 159.491 16.824V24H155.843Z" fill="white"/>
<path d="M178.504 24V20.16H182.392V24H178.504Z" fill="white"/>
<path d="M191.118 24.288C189.198 24.288 187.598 23.64 186.318 22.344C185.054 21.048 184.422 19.464 184.422 17.592C184.422 15.736 185.062 14.16 186.342 12.864C187.622 11.552 189.23 10.896 191.166 10.896C193.23 10.896 194.934 11.648 196.278 13.152L194.142 15.312C193.246 14.464 192.246 14.04 191.142 14.04C190.246 14.04 189.502 14.384 188.91 15.072C188.318 15.76 188.022 16.6 188.022 17.592C188.022 18.6 188.318 19.448 188.91 20.136C189.518 20.808 190.31 21.144 191.286 21.144C192.294 21.144 193.278 20.688 194.238 19.776L196.374 21.936C195.67 22.704 194.918 23.288 194.118 23.688C193.318 24.088 192.318 24.288 191.118 24.288Z" fill="white"/>
<path d="M209.685 22.344C208.357 23.64 206.701 24.288 204.717 24.288C202.733 24.288 201.077 23.648 199.749 22.368C198.437 21.072 197.781 19.48 197.781 17.592C197.781 15.72 198.445 14.136 199.773 12.84C201.117 11.544 202.781 10.896 204.765 10.896C206.749 10.896 208.397 11.544 209.709 12.84C211.037 14.12 211.701 15.704 211.701 17.592C211.701 19.464 211.029 21.048 209.685 22.344ZM204.765 21.144C205.773 21.144 206.581 20.808 207.189 20.136C207.797 19.448 208.101 18.6 208.101 17.592C208.101 16.616 207.781 15.784 207.141 15.096C206.517 14.392 205.709 14.04 204.717 14.04C203.709 14.04 202.901 14.384 202.293 15.072C201.685 15.744 201.381 16.584 201.381 17.592C201.381 18.568 201.693 19.408 202.317 20.112C202.957 20.8 203.773 21.144 204.765 21.144Z" fill="white"/>
<path d="M214.343 24V11.136H217.991V12.96C219.063 11.584 220.327 10.896 221.783 10.896C223.495 10.896 224.703 11.576 225.407 12.936C226.575 11.576 227.983 10.896 229.631 10.896C231.007 10.896 232.071 11.304 232.823 12.12C233.591 12.92 233.975 14.088 233.975 15.624V24H230.327V16.824C230.327 15.08 229.615 14.208 228.191 14.208C227.503 14.208 226.959 14.432 226.559 14.88C226.175 15.328 225.983 15.976 225.983 16.824V24H222.335V16.824C222.335 15.08 221.623 14.208 220.199 14.208C219.511 14.208 218.967 14.432 218.567 14.88C218.183 15.328 217.991 15.976 217.991 16.824V24H214.343Z" fill="white"/>
<path d="M237.004 24V20.16H240.892V24H237.004Z" fill="white"/>
<path d="M248.287 24.24C246.911 24.24 245.839 23.816 245.071 22.968C244.303 22.12 243.919 20.952 243.919 19.464V11.136H247.567V18.312C247.567 19.16 247.759 19.808 248.143 20.256C248.527 20.704 249.071 20.928 249.775 20.928C250.479 20.928 251.031 20.704 251.431 20.256C251.847 19.808 252.055 19.16 252.055 18.312V11.136H255.703V24H252.055V22.176C250.983 23.552 249.727 24.24 248.287 24.24Z" fill="white"/>
<path d="M262.616 24.24C261.352 24.24 260.296 23.888 259.448 23.184C258.616 22.48 258.2 21.504 258.2 20.256C258.2 18.896 258.664 17.872 259.592 17.184C260.536 16.496 261.8 16.152 263.384 16.152C264.456 16.152 265.504 16.328 266.528 16.68V16.464C266.528 14.896 265.608 14.112 263.768 14.112C262.664 14.112 261.48 14.344 260.216 14.808L259.304 12.024C260.872 11.336 262.536 10.992 264.296 10.992C266.232 10.992 267.68 11.472 268.64 12.432C269.568 13.36 270.032 14.728 270.032 16.536V24H266.504V22.608C265.528 23.696 264.232 24.24 262.616 24.24ZM263.72 21.72C264.568 21.72 265.256 21.512 265.784 21.096C266.312 20.664 266.576 20.12 266.576 19.464V18.816C265.888 18.496 265.112 18.336 264.248 18.336C263.448 18.336 262.824 18.496 262.376 18.816C261.944 19.12 261.728 19.568 261.728 20.16C261.728 20.64 261.912 21.024 262.28 21.312C262.648 21.584 263.128 21.72 263.72 21.72Z" fill="white"/>
<path d="M68.188 42V33.6H69.136V38.616L73.96 33.6H75.184L71.584 37.272L75.34 42H74.152L70.924 37.932L69.136 39.744V42H68.188Z" fill="#D3D3D3"/>
<path d="M76.813 42V33.6H79.957C80.917 33.6 81.681 33.84 82.249 34.32C82.817 34.8 83.101 35.456 83.101 36.288C83.101 37.16 82.785 37.836 82.153 38.316C81.529 38.796 80.745 39.036 79.801 39.036H77.761V42H76.813ZM77.761 38.172H79.837C80.533 38.172 81.089 38.004 81.505 37.668C81.929 37.324 82.141 36.868 82.141 36.3C82.141 35.716 81.937 35.268 81.529 34.956C81.129 34.636 80.581 34.476 79.885 34.476H77.761V38.172Z" fill="#D3D3D3"/>
<path d="M84.8286 42V33.6H90.9006V34.464H85.7766V37.332H90.3606V38.196H85.7766V41.136H90.9606V42H84.8286Z" fill="#D3D3D3"/>
<path d="M91.7997 43.872V41.136H92.6637C93.5117 39.784 93.9357 37.76 93.9357 35.064V33.6H99.4317V41.136H100.524L100.38 43.872H99.5877V42H92.7717L92.6037 43.872H91.7997ZM93.7317 41.136H98.4837V34.464H94.8477V35.556C94.8477 36.66 94.7477 37.724 94.5477 38.748C94.3477 39.772 94.0757 40.568 93.7317 41.136Z" fill="#D3D3D3"/>
<path d="M101.915 42V33.6H102.863V40.572L107.879 33.6H108.779V42H107.843V35.028L102.839 42H101.915Z" fill="#D3D3D3"/>
<path d="M113.369 42V34.464H110.549V33.6H117.149V34.464H114.329V42H113.369Z" fill="#D3D3D3"/>
<path d="M118.93 42V33.6H119.878V37.332H124.726V33.6H125.674V42H124.726V38.22H119.878V42H118.93Z" fill="#D3D3D3"/>
<path d="M128.047 42V33.6H128.995V36.852H131.119C132.087 36.852 132.871 37.056 133.471 37.464C134.079 37.872 134.383 38.492 134.383 39.324C134.383 40.148 134.099 40.8 133.531 41.28C132.971 41.76 132.215 42 131.263 42H128.047ZM128.995 41.136H131.239C131.927 41.136 132.463 40.984 132.847 40.68C133.239 40.376 133.435 39.932 133.435 39.348C133.435 38.812 133.235 38.404 132.835 38.124C132.443 37.844 131.891 37.704 131.179 37.704H128.995V41.136ZM135.463 42V33.6H136.411V42H135.463Z" fill="#D3D3D3"/>
<path d="M138.782 42V33.6H139.73V40.572L144.746 33.6H145.646V42H144.71V35.028L139.706 42H138.782ZM143.414 32.496C143.102 32.768 142.722 32.904 142.274 32.904C141.826 32.904 141.446 32.768 141.134 32.496C140.822 32.216 140.63 31.86 140.558 31.428L141.206 31.296C141.366 31.856 141.722 32.136 142.274 32.136C142.826 32.136 143.182 31.856 143.342 31.296L143.99 31.428C143.918 31.86 143.726 32.216 143.414 32.496Z" fill="#D3D3D3"/>
<path d="M151.614 42V33.6H154.758C155.718 33.6 156.482 33.84 157.05 34.32C157.618 34.8 157.902 35.456 157.902 36.288C157.902 37.16 157.586 37.836 156.954 38.316C156.33 38.796 155.546 39.036 154.602 39.036H152.562V42H151.614ZM152.562 38.172H154.638C155.334 38.172 155.89 38.004 156.306 37.668C156.73 37.324 156.942 36.868 156.942 36.3C156.942 35.716 156.738 35.268 156.33 34.956C155.93 34.636 155.382 34.476 154.686 34.476H152.562V38.172Z" fill="#D3D3D3"/>
<path d="M159.629 42V33.6H165.701V34.464H160.577V37.332H165.161V38.196H160.577V41.136H165.761V42H159.629Z" fill="#D3D3D3"/>
<path d="M167.668 42V33.6H168.616V40.572L173.632 33.6H174.532V42H173.596V35.028L168.592 42H167.668ZM172.3 32.496C171.988 32.768 171.608 32.904 171.16 32.904C170.712 32.904 170.332 32.768 170.02 32.496C169.708 32.216 169.516 31.86 169.444 31.428L170.092 31.296C170.252 31.856 170.608 32.136 171.16 32.136C171.712 32.136 172.068 31.856 172.228 31.296L172.876 31.428C172.804 31.86 172.612 32.216 172.3 32.496Z" fill="#D3D3D3"/>
<path d="M179.123 42V34.464H176.303V33.6H182.903V34.464H180.083V42H179.123Z" fill="#D3D3D3"/>
<path d="M184.684 42V33.6H185.632V40.572L190.648 33.6H191.548V42H190.612V35.028L185.608 42H184.684Z" fill="#D3D3D3"/>
<path d="M193.918 42V33.6H194.866V37.332H199.714V33.6H200.662V42H199.714V38.22H194.866V42H193.918Z" fill="#D3D3D3"/>
<path d="M203.036 42V33.6H208.4V34.464H203.984V42H203.036Z" fill="#D3D3D3"/>
<path d="M213.7 42V33.6H217.276C218.26 33.6 218.992 33.848 219.472 34.344C219.832 34.72 220.012 35.176 220.012 35.712C220.012 36.624 219.568 37.272 218.68 37.656C219.88 38.016 220.48 38.7 220.48 39.708C220.48 40.42 220.204 40.98 219.652 41.388C219.1 41.796 218.36 42 217.432 42H213.7ZM214.636 41.148H217.456C218.096 41.148 218.6 41.016 218.968 40.752C219.336 40.48 219.52 40.104 219.52 39.624C219.52 39.16 219.328 38.804 218.944 38.556C218.568 38.308 218.016 38.184 217.288 38.184H214.636V41.148ZM214.636 37.344H217.12C217.704 37.344 218.172 37.212 218.524 36.948C218.876 36.684 219.052 36.308 219.052 35.82C219.052 35.396 218.888 35.064 218.56 34.824C218.24 34.576 217.784 34.452 217.192 34.452H214.636V37.344Z" fill="#D3D3D3"/>
<path d="M227.194 42.144C226.698 42.144 226.226 42.028 225.778 41.796L226.15 41.04C226.462 41.208 226.818 41.292 227.218 41.292C227.898 41.292 228.458 40.872 228.898 40.032L225.202 33.6H226.282L229.378 39.084L232.054 33.6H233.086L229.762 40.236C229.13 41.508 228.274 42.144 227.194 42.144Z" fill="#D3D3D3"/>
<path d="M234.7 42V33.6H235.648V38.616L240.472 33.6H241.696L238.096 37.272L241.852 42H240.664L237.436 37.932L235.648 39.744V42H234.7Z" fill="#D3D3D3"/>
<path d="M243.325 42V33.6H246.469C247.429 33.6 248.193 33.84 248.761 34.32C249.329 34.8 249.613 35.456 249.613 36.288C249.613 37.16 249.297 37.836 248.665 38.316C248.041 38.796 247.257 39.036 246.313 39.036H244.273V42H243.325ZM244.273 38.172H246.349C247.045 38.172 247.601 38.004 248.017 37.668C248.441 37.324 248.653 36.868 248.653 36.3C248.653 35.716 248.449 35.268 248.041 34.956C247.641 34.636 247.093 34.476 246.397 34.476H244.273V38.172Z" fill="#D3D3D3"/>
<path d="M250.62 42L254.448 33.54H255.336L259.164 42H258.144L257.16 39.78H252.588L251.592 42H250.62ZM252.96 38.928H256.788L254.88 34.644L252.96 38.928Z" fill="#D3D3D3"/>
<path d="M260.821 42V33.6H261.769V40.572L266.785 33.6H267.685V42H266.749V35.028L261.745 42H260.821Z" fill="#D3D3D3"/>
<path d="M270.055 42V33.6H271.003V37.332H275.851V33.6H276.799V42H275.851V38.22H271.003V42H270.055Z" fill="#D3D3D3"/>
<path d="M279.172 42V33.6H285.244V34.464H280.12V37.332H284.704V38.196H280.12V41.136H285.304V42H279.172Z" fill="#D3D3D3"/>
<defs>
<linearGradient id="paint0_linear" x1="35.1731" y1="-0.638576" x2="47.5039" y2="45.1114" gradientUnits="userSpaceOnUse">
<stop stop-color="#4F7886"/>
<stop offset="1" stop-color="#8AEBF1"/>
</linearGradient>
<linearGradient id="paint1_linear" x1="15.0711" y1="2.52863" x2="30.454" y2="50.2071" gradientUnits="userSpaceOnUse">
<stop stop-color="#4F7886"/>
<stop offset="1" stop-color="#8AEBF1"/>
</linearGradient>
<linearGradient id="paint2_linear" x1="6.15084" y1="47.9107" x2="16.9625" y2="-2.0739" gradientUnits="userSpaceOnUse">
<stop stop-color="#218196"/>
<stop offset="1" stop-color="#72FFEE"/>
</linearGradient>
<linearGradient id="paint3_linear" x1="24.6947" y1="51.9223" x2="35.5064" y2="1.93703" gradientUnits="userSpaceOnUse">
<stop stop-color="#2093A3"/>
<stop offset="1" stop-color="#72EEFF"/>
</linearGradient>
<linearGradient id="paint4_linear" x1="19.0478" y1="10.2793" x2="13.3378" y2="40.1754" gradientUnits="userSpaceOnUse">
<stop offset="0.00259088" stop-color="#6DEDE5"/>
<stop offset="1" stop-color="#227BA0"/>
</linearGradient>
<linearGradient id="paint5_linear" x1="39.3414" y1="3.75393" x2="30.1121" y2="45.5704" gradientUnits="userSpaceOnUse">
<stop offset="0.00259088" stop-color="#6DEDE5"/>
<stop offset="1" stop-color="#227BA0"/>
</linearGradient>
<clipPath id="clip0">
</clipPath>
</defs>
</svg>
