<svg width="1250" height="334" viewBox="0 0 1250 334" fill="none" xmlns="http://www.w3.org/2000/svg">
<g clip-path="url(#clip0_415:20)">
<rect width="1250" height="334" fill="#F0721B"/>
<rect x="-239" width="1541.19" height="217" fill="#004B9B"/>
<path d="M131.745 131.791H151.616V53.9486H179.901V131.791H199.808V54.0593H228.111V152.805H103.461V53.9486H131.745V131.791Z" fill="white"/>
<path d="M235.86 87.2323H275.676C292.06 87.2323 303.074 91.9925 303.074 104.004C303.074 112.528 296.561 117.159 290.307 118.026C296.93 119.65 305.455 123.026 305.455 134.17C305.455 147.565 293.185 152.805 278.166 152.805H235.86V87.2323ZM260.897 113.063H270.657C276.414 113.063 278.554 111.679 278.554 108.044C278.554 103.672 276.285 102.288 270.657 102.288H260.897V113.063ZM260.897 137.842H270.657C276.912 137.842 280.417 137.196 280.417 132.306C280.417 127.417 277.041 126.31 270.657 126.31H260.897V137.842Z" fill="white"/>
<path d="M336.264 123.155L358.534 87.2323H384.696V152.805H359.659V118.081L337.334 152.805H311.319V87.2323H336.357L336.264 123.155Z" fill="white"/>
<path d="M502.542 107.251L519.148 87.2323H549.517L525.31 112.638L552.727 152.805H521.362L507.34 129.539L502.469 134.428V152.879H476.491V87.2323H502.542V107.251Z" fill="white"/>
<path d="M580.713 85.3749C603.886 85.3749 618.13 99.0097 618.13 119.416C618.13 143.401 601.857 154.693 580.842 154.693C559.827 154.693 543.535 143.18 543.535 120.781C543.535 98.0133 558.554 85.3749 580.713 85.3749ZM569.642 119.416C569.642 131.796 574.274 137.165 580.897 137.165C587.908 137.165 592.152 131.796 592.152 119.416C592.152 109.766 587.779 102.81 581.082 102.81C572.207 102.884 569.587 112.017 569.587 119.416H569.642Z" fill="white"/>
<path d="M685.847 54.2205V76.9328H652.267V152.69H622.747V54.2205H685.847Z" fill="#83D0F5"/>
<path d="M775.882 85.3749C799.037 85.3749 813.299 99.0097 813.299 119.416C813.299 143.401 797.045 154.693 776.011 154.693C754.978 154.693 738.705 143.18 738.705 120.781C738.705 98.0133 753.742 85.3749 775.882 85.3749ZM764.812 119.416C764.812 131.796 769.443 137.165 776.085 137.165C783.078 137.165 787.34 131.796 787.34 119.416C787.34 109.766 782.967 102.81 776.27 102.81C767.377 102.884 764.738 112.017 764.738 119.416H764.812Z" fill="#83D0F5"/>
<path d="M842.876 133.782H859.279V87.2323H884.316V133.782H900.681V87.2323H925.718V152.805H817.839V87.2323H842.876V133.782Z" fill="#83D0F5"/>
<path d="M688.409 163.272V146.316C690.327 148.961 692.855 151.103 695.778 152.561C698.701 154.02 701.933 154.751 705.199 154.693C719.83 154.693 735.845 145.32 735.845 119.526C735.845 101.519 726.343 85.3749 706.546 85.3749C699.073 85.3749 689.664 89.0649 686.047 97.017H685.771V87.2384H662.376V163.272H688.409ZM698.428 104.379C705.31 104.379 709.83 109.526 709.83 119.895C709.83 128.936 705.439 134.803 698.538 134.803C691.638 134.803 687.893 128.549 687.893 119.416C687.893 110.707 692.155 104.379 698.428 104.379V104.379Z" fill="#83D0F5"/>
<path d="M412.523 163.266V152.805H448.187V163.266H472.025V137.805H464.645V87.2323H401.619V106.273C401.619 119.65 399.995 129.428 394.884 137.805H388.74V163.266H412.523ZM425.438 108.266V102.251H438.704V137.805H419.276C424.165 130.775 425.401 118.893 425.401 108.266H425.438Z" fill="white"/>
<path d="M958.08 152.805H932.065V87.2323H958.08V152.805Z" fill="#83D0F5"/>
<path d="M958.653 67.1938C958.653 69.854 957.864 72.4545 956.386 74.6664C954.908 76.8783 952.808 78.6023 950.35 79.6203C947.892 80.6383 945.188 80.9047 942.579 80.3857C939.969 79.8667 937.573 78.5857 935.692 76.7046C933.811 74.8236 932.53 72.427 932.011 69.8179C931.492 67.2088 931.758 64.5043 932.776 62.0466C933.794 59.5889 935.518 57.4883 937.73 56.0103C939.942 54.5324 942.542 53.7435 945.203 53.7435C946.97 53.7411 948.72 54.0874 950.353 54.7624C951.986 55.4375 953.469 56.4282 954.719 57.6776C955.968 58.9271 956.959 60.4108 957.634 62.0438C958.309 63.6767 958.655 65.4268 958.653 67.1938V67.1938Z" fill="#83D0F5"/>
<path d="M26 249.746H68.481V262.534H43.9034V304.55H26V249.746Z" fill="white"/>
<path d="M94.1955 287.497V304.546H76.2921V249.746H102.614C110.3 249.746 116.102 251.381 120.024 254.656C123.942 257.93 125.904 262.456 125.904 268.241C125.904 274.329 124.031 279.062 120.289 282.436C116.547 285.81 110.855 287.497 103.221 287.497H94.1955ZM94.1955 262.534V274.713H101.631C106.436 274.713 108.839 272.583 108.839 268.319C108.839 264.465 105.653 262.534 99.2803 262.534H94.1955V262.534Z" fill="white"/>
<path d="M160.419 248.299C165.121 248.299 169.345 249.096 173.087 250.695C176.828 252.293 179.838 254.449 182.116 257.166C184.393 259.88 186.122 262.914 187.311 266.263C188.499 269.611 189.095 273.141 189.095 276.843C189.095 285.929 186.402 293.058 181.015 298.233C175.629 303.409 168.763 305.997 160.419 305.997C151.721 305.997 144.778 303.409 139.594 298.233C134.41 293.058 131.82 285.877 131.82 276.692C131.82 268.116 134.45 261.242 139.708 256.066C144.97 250.887 151.872 248.299 160.419 248.299ZM160.268 261.696C157.74 261.696 155.639 262.508 153.973 264.133C152.302 265.757 151.176 267.632 150.599 269.766C150.017 271.896 149.727 274.255 149.727 276.843C149.727 278.774 149.889 280.587 150.22 282.285C150.547 283.987 151.092 285.648 151.85 287.269C152.608 288.893 153.719 290.189 155.187 291.149C156.651 292.112 158.399 292.596 160.422 292.596C164.113 292.596 166.832 291.175 168.576 288.332C170.32 285.489 171.192 281.661 171.192 276.84C171.192 272.627 170.294 269.05 168.499 266.108C166.703 263.169 163.958 261.696 160.268 261.696Z" fill="white"/>
<path d="M214.504 249.746V291.761H226.565V249.746H243.71V291.761H255.771V249.746H272.917V304.55H197.363V249.746H214.504Z" fill="white"/>
<path d="M301.438 249.746V304.55H283.535V249.746H301.438Z" fill="white"/>
<path d="M339.622 302.821V249.66H364.937C368.126 249.66 370.932 249.87 373.364 250.289C375.795 250.709 378.026 251.4 380.056 252.353C382.095 253.315 383.646 254.687 384.727 256.489C385.807 258.29 386.348 260.467 386.348 263.02C386.348 265.529 385.685 267.785 384.361 269.779C383.036 271.772 381.389 273.381 379.429 274.614C382.226 275.349 384.396 276.826 385.938 279.047C387.481 281.259 388.256 283.848 388.256 286.803C388.256 297.488 380.649 302.821 365.442 302.821H339.622V302.821ZM356.99 262.067V270.924H364.205C366.018 270.924 367.464 270.531 368.545 269.744C369.625 268.957 370.166 267.803 370.166 266.273C370.166 265.486 370.026 264.812 369.765 264.244C369.495 263.676 369.172 263.256 368.806 262.985C368.44 262.714 367.882 262.504 367.15 262.356C366.418 262.207 365.791 262.119 365.277 262.093C364.763 262.067 364.039 262.058 363.107 262.058H356.99V262.067ZM356.99 280.595V290.414H364.571C366.976 290.414 368.824 290.073 370.131 289.382C371.429 288.692 372.083 287.415 372.083 285.544C372.083 283.428 371.307 282.073 369.765 281.487C368.222 280.892 365.8 280.604 362.514 280.604H356.99V280.595Z" fill="white"/>
<path d="M438.589 286.279V302.813H421.222V249.652H446.754C454.214 249.652 459.843 251.243 463.642 254.417C467.442 257.591 469.342 261.98 469.342 267.594C469.342 273.504 467.529 278.086 463.895 281.365C460.261 284.635 454.745 286.279 447.338 286.279H438.589V286.279ZM438.589 262.068V273.88H445.805C450.467 273.88 452.793 271.817 452.793 267.681C452.793 263.939 449.7 262.068 443.521 262.068H438.589Z" fill="white"/>
<path d="M502.83 248.261C507.396 248.261 511.483 249.039 515.117 250.587C518.751 252.135 521.67 254.233 523.875 256.865C526.08 259.497 527.762 262.443 528.912 265.687C530.062 268.94 530.637 272.359 530.637 275.952C530.637 284.766 528.023 291.682 522.803 296.701C517.575 301.72 510.917 304.23 502.822 304.23C494.386 304.23 487.65 301.72 482.622 296.701C477.594 291.682 475.084 284.714 475.084 275.804C475.084 267.488 477.638 260.817 482.735 255.798C487.842 250.771 494.534 248.261 502.83 248.261ZM502.682 261.254C500.225 261.254 498.194 262.041 496.573 263.615C494.953 265.189 493.863 267.008 493.297 269.08C492.731 271.143 492.452 273.434 492.452 275.944C492.452 277.815 492.609 279.572 492.931 281.225C493.253 282.877 493.776 284.486 494.517 286.06C495.249 287.634 496.329 288.893 497.759 289.829C499.179 290.764 500.87 291.228 502.839 291.228C506.421 291.228 509.061 289.846 510.751 287.092C512.442 284.338 513.287 280.622 513.287 275.944C513.287 271.86 512.416 268.389 510.673 265.53C508.921 262.679 506.255 261.254 502.682 261.254Z" fill="white"/>
<path d="M557.346 280.595V270.925H558.819C561.712 270.925 563.856 270.531 565.259 269.744C566.653 268.957 567.359 267.558 567.359 265.539C567.359 264.017 566.67 262.819 565.302 261.954C563.925 261.097 562.139 260.66 559.934 260.66C557.974 260.66 556.292 261.106 554.897 261.989C553.503 262.872 552.649 264.183 552.362 265.906H537.94C538.236 261.971 539.526 258.631 541.8 255.903C544.083 253.175 546.837 251.216 550.078 250.036C553.32 248.856 556.919 248.261 560.893 248.261C567.516 248.261 572.944 249.704 577.188 252.58C581.432 255.457 583.55 259.112 583.55 263.545C583.55 266.151 582.835 268.52 581.415 270.636C579.994 272.752 578.129 274.352 575.82 275.437C578.809 276.573 581.084 278.086 582.626 279.975C584.168 281.872 584.944 284.539 584.944 287.984C584.944 293.055 582.861 297.025 578.687 299.91C574.513 302.787 568.509 304.23 560.657 304.23C552.902 304.23 546.959 302.621 542.811 299.394C538.663 296.168 536.301 291.114 535.709 284.224H550.349C551.037 289.295 554.226 291.831 559.917 291.831C562.758 291.831 564.945 291.315 566.461 290.283C567.977 289.252 568.744 287.896 568.744 286.226C568.744 284.014 567.882 282.519 566.165 281.758C564.448 280.998 561.991 280.613 558.81 280.613H557.346V280.595Z" fill="white"/>
<path d="M643.73 269.963H627.251C627.007 267.209 626.057 265.067 624.419 263.537C622.772 262.015 620.576 261.246 617.831 261.246C614.738 261.246 612.332 262.566 610.616 265.198C608.899 267.83 608.036 271.686 608.036 276.749C608.036 279.555 608.272 281.942 608.733 283.91C609.195 285.877 610.241 287.591 611.862 289.042C613.483 290.494 615.687 291.219 618.485 291.219C621.134 291.219 623.19 290.406 624.663 288.78C626.136 287.154 627.042 284.968 627.382 282.213H644.087C643.303 289.051 640.636 294.428 636.105 298.345C631.565 302.263 625.787 304.212 618.772 304.212C610.041 304.212 603.174 301.703 598.172 296.684C593.17 291.665 590.669 284.819 590.669 276.163C590.669 267.743 593.179 260.992 598.215 255.895C603.244 250.797 609.535 248.253 617.09 248.253C625.081 248.253 631.355 250.133 635.887 253.901C640.436 257.67 643.05 263.021 643.73 269.963Z" fill="white"/>
<path d="M681.558 262.067V302.821H664.19V262.067H648.592V249.66H697.156V262.067H681.558Z" fill="white"/>
<path d="M721.948 286.279V302.813H704.581V249.652H730.113C737.572 249.652 743.202 251.243 747.001 254.417C750.801 257.591 752.7 261.98 752.7 267.594C752.7 273.504 750.888 278.086 747.254 281.365C743.62 284.635 738.104 286.279 730.697 286.279H721.948V286.279ZM721.948 262.068V273.88H729.163C733.825 273.88 736.152 271.817 736.152 267.681C736.152 263.939 733.059 262.068 726.88 262.068H721.948Z" fill="white"/>
<path d="M786.189 248.261C790.755 248.261 794.842 249.039 798.476 250.587C802.11 252.135 805.029 254.233 807.234 256.865C809.438 259.497 811.12 262.443 812.27 265.687C813.421 268.94 813.996 272.359 813.996 275.952C813.996 284.766 811.382 291.682 806.162 296.701C800.933 301.72 794.276 304.23 786.18 304.23C777.745 304.23 771.009 301.72 765.981 296.701C760.953 291.682 758.443 284.714 758.443 275.804C758.443 267.488 760.996 260.817 766.094 255.798C771.2 250.771 777.893 248.261 786.189 248.261ZM786.041 261.254C783.583 261.254 781.553 262.041 779.932 263.615C778.311 265.189 777.222 267.008 776.655 269.08C776.089 271.143 775.81 273.434 775.81 275.944C775.81 277.815 775.967 279.572 776.289 281.225C776.612 282.877 777.135 284.486 777.875 286.06C778.607 287.634 779.688 288.893 781.117 289.829C782.538 290.764 784.228 291.228 786.197 291.228C789.779 291.228 792.419 289.846 794.11 287.092C795.801 284.338 796.646 280.622 796.646 275.944C796.646 271.86 795.774 268.389 794.032 265.53C792.28 262.679 789.622 261.254 786.041 261.254Z" fill="white"/>
<path d="M821.281 249.66H838.648V263.396C838.648 267.479 840.853 269.525 845.271 269.525C848.609 269.525 851.232 269.202 853.14 268.564V249.66H870.507V302.821H853.14V281.338C849.855 282.125 845.018 282.518 838.648 282.518C836.592 282.518 834.579 282.195 832.618 281.557C830.657 280.918 828.801 279.957 827.058 278.68C825.316 277.403 823.921 275.681 822.867 273.512C821.812 271.344 821.281 268.887 821.281 266.133V249.66Z" fill="white"/>
<path d="M898.175 249.66V266.859L913.407 249.66H933.79L914.435 269.666L935.846 302.813H915.019L902.288 281.627L898.166 285.982V302.813H880.799V249.652H898.175V249.66Z" fill="white"/>
<path d="M936.883 249.66H956.455L964.916 270.627L973.308 249.66H992L972.428 291.149C970.223 295.87 967.905 299.236 965.474 301.23C963.043 303.224 960.167 304.22 956.83 304.22C954.033 304.22 951.314 303.678 948.665 302.594V290.484C950.041 290.974 951.244 291.218 952.272 291.218C954.085 291.218 955.462 290.23 956.394 288.263L936.883 249.66Z" fill="white"/>
<path d="M1100.85 118.45C1106.94 112.454 1114.17 109.458 1122.53 109.458C1130.9 109.458 1138.1 112.454 1144.14 118.45C1150.19 124.446 1153.21 131.626 1153.21 139.991C1153.21 148.452 1150.21 155.678 1144.22 161.674C1138.22 167.669 1130.99 170.665 1122.53 170.665C1114.07 170.665 1106.82 167.669 1100.78 161.674C1094.74 155.678 1091.72 148.452 1091.72 139.991C1091.72 131.626 1094.76 124.446 1100.85 118.45ZM1130.83 131.767C1128.46 129.444 1125.69 128.282 1122.53 128.282C1119.37 128.282 1116.58 129.444 1114.17 131.767C1111.75 134.091 1110.54 136.835 1110.54 139.995C1110.54 143.155 1111.73 145.922 1114.1 148.291C1116.47 150.66 1119.28 151.845 1122.53 151.845C1125.69 151.845 1128.46 150.66 1130.83 148.291C1133.2 145.922 1134.38 143.155 1134.38 139.995C1134.38 136.835 1133.2 134.091 1130.83 131.767ZM1193.82 108.621L1134.7 217.095H1120.62L1179.74 108.621H1193.82ZM1169.43 163.764C1175.52 157.768 1182.75 154.772 1191.11 154.772C1199.48 154.772 1206.68 157.768 1212.72 163.764C1218.76 169.76 1221.79 176.94 1221.79 185.305C1221.79 193.766 1218.79 200.992 1212.8 206.988C1206.8 212.983 1199.57 215.979 1191.11 215.979C1182.65 215.979 1175.4 212.983 1169.36 206.988C1163.32 200.992 1160.3 193.766 1160.3 185.305C1160.3 176.94 1163.35 169.76 1169.43 163.764ZM1199.41 177.081C1197.04 174.758 1194.28 173.596 1191.12 173.596C1187.96 173.596 1185.17 174.758 1182.75 177.081C1180.33 179.405 1179.12 182.149 1179.12 185.309C1179.12 188.469 1180.31 191.236 1182.68 193.605C1185.05 195.974 1187.86 197.159 1191.11 197.159C1194.27 197.159 1197.04 195.974 1199.41 193.605C1201.78 191.236 1202.96 188.469 1202.96 185.309C1202.97 182.149 1201.78 179.405 1199.41 177.081Z" fill="white"/>
<path d="M1086.81 106V264.503H1040.7V173.394H1004.56V141.913C1031.46 141.913 1047.2 129.941 1051.78 106H1086.81Z" fill="white"/>
<path d="M1105.23 232.709H1130.3V252.81H1133.18V265H1123.73V258.783H1109.55V265H1100.1V252.81H1102.54C1104.33 249.89 1105.22 245.714 1105.22 240.272V232.709H1105.23ZM1119.95 238.678H1114.68V241.067C1114.68 246.573 1113.87 250.486 1112.24 252.806H1119.95V238.678Z" fill="white"/>
<path d="M1163.38 248.079H1143.64C1143.64 249.573 1144.13 250.8 1145.13 251.759C1146.12 252.722 1147.33 253.203 1148.76 253.203C1150.62 253.203 1151.91 252.439 1152.64 250.914H1162.54C1161.71 253.899 1159.95 256.081 1157.27 257.456C1154.58 258.832 1151.53 259.52 1148.11 259.52C1143.77 259.52 1140.21 258.328 1137.44 255.939C1134.67 253.551 1133.29 250.234 1133.29 245.989C1133.29 241.777 1134.69 238.384 1137.49 235.816C1140.3 233.248 1143.82 231.96 1148.06 231.96C1152.84 231.96 1156.59 233.412 1159.31 236.313C1162.02 239.217 1163.38 243.138 1163.38 248.079ZM1143.64 242.805H1153.04C1153.04 241.613 1152.58 240.558 1151.67 239.645C1150.76 238.732 1149.69 238.277 1148.46 238.277C1146.94 238.277 1145.75 238.682 1144.9 239.496C1144.06 240.31 1143.64 241.414 1143.64 242.805Z" fill="white"/>
<path d="M1175.28 232.709V241.414H1182.94V232.709H1193.29V258.779H1182.94V248.977H1175.28V258.779H1164.93V232.709H1175.28V232.709Z" fill="white"/>
<path d="M1205.97 232.709V241.862H1211.74C1215.36 241.862 1218.15 242.683 1220.13 244.323C1222.1 245.966 1223.09 247.98 1223.09 250.368C1223.09 253.089 1222.13 255.168 1220.23 256.612C1218.32 258.057 1215.48 258.775 1211.69 258.775H1196.02V232.706H1205.97V232.709ZM1205.97 247.831V252.806H1209.26C1210.62 252.806 1211.6 252.642 1212.22 252.309C1212.83 251.977 1213.14 251.331 1213.14 250.368C1213.14 249.405 1212.82 248.744 1212.2 248.377C1211.56 248.014 1210.59 247.831 1209.26 247.831H1205.97Z" fill="white"/>
</g>
<defs>
<clipPath id="clip0_415:20">
<rect width="1250" height="334" fill="white"/>
</clipPath>
</defs>
</svg>
