<svg width="53" height="60" viewBox="0 0 53 60" fill="none" xmlns="http://www.w3.org/2000/svg">
<path d="M9.54343 3.5835L6.66895 19.9776H13.8551L19.1969 5.26986L9.54343 3.5835ZM9.5051 17.5822L11.4981 6.35737L15.9823 7.15264L12.1736 17.5822H9.5051Z" fill="white"/>
<path d="M22.56 1.10181L15.6899 19.9776H23.978L32.7308 4.79072L22.56 1.10181ZM19.1106 17.5822L23.9924 4.16792L29.2287 6.08424L22.5935 17.5822H19.1106Z" fill="white"/>
<path d="M37.3968 0L25.8701 19.9776H46.2167L52.6651 8.81507L37.3968 0ZM30.0142 17.5822L38.2783 3.27691L49.393 9.69179L44.8321 17.5822H30.0142Z" fill="white"/>
<path d="M48.1476 21.1753H4.25423C3.12633 21.1766 2.04498 21.6252 1.24744 22.4227C0.449888 23.2203 0.00126802 24.3016 0 25.4295L0 55.7457C0.00126802 56.8736 0.449888 57.955 1.24744 58.7525C2.04498 59.5501 3.12633 59.9987 4.25423 60H48.1476C49.2755 59.9987 50.3568 59.5501 51.1544 58.7525C51.9519 57.955 52.4005 56.8736 52.4018 55.7457V46.8971H50.0064V55.7457C50.0051 56.2383 49.8089 56.7104 49.4606 57.0587C49.1122 57.407 48.6402 57.6033 48.1476 57.6045H4.25423C3.76124 57.6045 3.28844 57.4087 2.93984 57.0601C2.59124 56.7115 2.3954 56.2387 2.3954 55.7457V25.4295C2.3954 24.9365 2.59124 24.4637 2.93984 24.1151C3.28844 23.7665 3.76124 23.5707 4.25423 23.5707H48.1476C48.6402 23.572 49.1122 23.7682 49.4606 24.1165C49.8089 24.4649 50.0051 24.9369 50.0064 25.4295V34.2781H52.4018V25.4295C52.4005 24.3016 51.9519 23.2203 51.1544 22.4227C50.3568 21.6252 49.2755 21.1766 48.1476 21.1753Z" fill="white"/>
<path d="M37.9287 42.6237C39.0532 42.6237 39.9648 41.7121 39.9648 40.5876C39.9648 39.4631 39.0532 38.5515 37.9287 38.5515C36.8042 38.5515 35.8926 39.4631 35.8926 40.5876C35.8926 41.7121 36.8042 42.6237 37.9287 42.6237Z" fill="white"/>
<path d="M50.0062 36.5155V44.6599H37.5501C36.5043 44.6091 35.518 44.158 34.7958 43.3998C34.0736 42.6417 33.6707 41.6348 33.6707 40.5877C33.6707 39.5406 34.0736 38.5337 34.7958 37.7756C35.518 37.0174 36.5043 36.5663 37.5501 36.5155H50.0062ZM52.4016 34.1201H37.5501C35.8348 34.1201 34.1897 34.8015 32.9768 36.0144C31.7639 37.2273 31.0825 38.8724 31.0825 40.5877C31.0819 41.4374 31.2487 42.279 31.5735 43.0642C31.8982 43.8494 32.3745 44.563 32.9751 45.1641C33.5758 45.7651 34.289 46.242 35.074 46.5673C35.859 46.8926 36.7004 47.0601 37.5501 47.0601H52.4016V34.1249V34.1201Z" fill="white"/>
</svg>
