<svg width="26" height="26" viewBox="0 0 26 26" fill="none" xmlns="http://www.w3.org/2000/svg">
<path d="M13 26C20.1797 26 26 20.1797 26 13C26 5.8203 20.1797 0 13 0C5.8203 0 0 5.8203 0 13C0 20.1797 5.8203 26 13 26Z" fill="#71B317"/>
<path d="M25.7564 5.34218L23.461 3.06715C23.1563 2.76245 22.6485 2.76245 22.3235 3.06715L12.5125 13.2031L8.26717 9.01875C7.96247 8.71405 7.45466 8.71405 7.12968 9.01875L5.0984 11.0297C4.7937 11.3344 4.7937 11.8422 5.0984 12.1469L11.8828 18.8704C12.0657 19.0532 12.3094 19.1141 12.5532 19.0938C12.7969 19.1141 13.0406 19.0531 13.2235 18.8704L25.7564 6.47967C26.0611 6.15464 26.0611 5.64683 25.7564 5.34218Z" fill="white"/>
<path d="M13.2234 18.8705L25.7563 6.47985C26.061 6.17514 26.061 5.66733 25.7563 5.36263L25.3907 5.01733L12.5328 17.6518L5.42337 10.7252L5.11867 11.0299C4.81396 11.3346 4.81396 11.8424 5.11867 12.1471L11.9031 18.8706C12.0859 19.0534 12.3297 19.1143 12.5734 19.094C12.7968 19.1143 13.0406 19.0534 13.2234 18.8705Z" fill="#FBFBFB"/>
</svg>
