<svg width="13" height="10" viewBox="0 0 13 10" fill="none" xmlns="http://www.w3.org/2000/svg">
<path d="M5.96478 0.288001C6.02441 0.19918 6.10421 0.126556 6.19729 0.0763845C6.29038 0.0262136 6.39396 0 6.49912 0C6.60428 0 6.70786 0.0262136 6.80094 0.0763845C6.89403 0.126556 6.97382 0.19918 7.03346 0.288001L12.8839 8.95407C12.9516 9.05403 12.9913 9.1711 12.9987 9.29258C13.0061 9.41405 12.9809 9.53528 12.9258 9.6431C12.8708 9.75091 12.7879 9.84118 12.6863 9.9041C12.5847 9.96702 12.4683 10.0002 12.3496 10H0.648661C0.53025 9.9995 0.414212 9.9659 0.313027 9.90283C0.211842 9.83976 0.129337 9.74959 0.0743855 9.64203C0.019434 9.53447 -0.00588502 9.41358 0.00115111 9.29236C0.00818723 9.17114 0.0473123 9.05419 0.114319 8.95407L5.96478 0.288001Z" fill="#639A88"/>
</svg>
