<svg width="251" height="257" viewBox="0 0 251 257" fill="none" xmlns="http://www.w3.org/2000/svg">
<g opacity="0.6">
<g opacity="0.5">
<path opacity="0.5" d="M3.05176e-05 127.501L144.994 -7H248.623L47.3773 179.672L3.05176e-05 127.501Z" fill="url(#paint0_linear)"/>
<path opacity="0.5" d="M220.569 257L56.5379 75.4732L3.05176e-05 127.501L117.083 257H220.569Z" fill="url(#paint1_linear)"/>
</g>
<g opacity="0.5">
<path opacity="0.5" d="M38.0736 127.501L183.068 -7H286.697L85.4509 179.672L38.0736 127.501Z" fill="url(#paint2_linear)"/>
<path opacity="0.5" d="M258.643 257L94.6115 75.4732L38.0736 127.501L155.3 257H258.643Z" fill="url(#paint3_linear)"/>
<path opacity="0.5" d="M152.752 127.501L297.747 -7H401.376L200.13 179.672L152.752 127.501Z" fill="url(#paint4_linear)"/>
<path opacity="0.5" d="M373.321 257L209.29 75.4732L152.752 127.501L269.979 257H373.321Z" fill="url(#paint5_linear)"/>
</g>
</g>
<defs>
<linearGradient id="paint0_linear" x1="-0.0648142" y1="86.3464" x2="248.601" y2="86.3464" gradientUnits="userSpaceOnUse">
<stop stop-color="#589D80" stop-opacity="0"/>
<stop offset="1" stop-color="#589D80" stop-opacity="0.4"/>
</linearGradient>
<linearGradient id="paint1_linear" x1="-0.0648064" y1="166.266" x2="220.536" y2="166.266" gradientUnits="userSpaceOnUse">
<stop stop-color="#589D80" stop-opacity="0"/>
<stop offset="1" stop-color="#589D80" stop-opacity="0.4"/>
</linearGradient>
<linearGradient id="paint2_linear" x1="38.0307" y1="86.3464" x2="286.697" y2="86.3464" gradientUnits="userSpaceOnUse">
<stop stop-color="#589D80" stop-opacity="0"/>
<stop offset="1" stop-color="#589D80" stop-opacity="0.4"/>
</linearGradient>
<linearGradient id="paint3_linear" x1="38.0307" y1="166.266" x2="258.632" y2="166.266" gradientUnits="userSpaceOnUse">
<stop stop-color="#589D80" stop-opacity="0"/>
<stop offset="1" stop-color="#589D80" stop-opacity="0.4"/>
</linearGradient>
<linearGradient id="paint4_linear" x1="152.709" y1="86.3464" x2="401.376" y2="86.3464" gradientUnits="userSpaceOnUse">
<stop stop-color="#589D80" stop-opacity="0"/>
<stop offset="1" stop-color="#589D80" stop-opacity="0.4"/>
</linearGradient>
<linearGradient id="paint5_linear" x1="152.714" y1="166.246" x2="373.321" y2="166.246" gradientUnits="userSpaceOnUse">
<stop stop-color="#589D80" stop-opacity="0"/>
<stop offset="1" stop-color="#589D80" stop-opacity="0.4"/>
</linearGradient>
</defs>
</svg>
