<svg width="22" height="16" viewBox="0 0 22 16" fill="none" xmlns="http://www.w3.org/2000/svg">
<path d="M21.7004 6.84642L15.1536 0.299579C14.7541 -0.0998598 14.1063 -0.0998598 13.7069 0.299579C13.3074 0.6991 13.3074 1.34675 13.7069 1.74627L18.5074 6.54682H1.02294C0.458033 6.54682 0 7.00485 0 7.56976C0 8.13459 0.458033 8.59271 1.02294 8.59271H18.5074L13.707 13.3933C13.3075 13.7928 13.3075 14.4404 13.707 14.8399C13.9067 15.0395 14.1686 15.1395 14.4304 15.1395C14.6922 15.1395 14.954 15.0395 15.1537 14.8399L21.7004 8.29311C22.0999 7.89359 22.0999 7.24594 21.7004 6.84642Z" fill="#575757"/>
</svg>
