<svg width="16" height="16" viewBox="0 0 16 16" fill="none" xmlns="http://www.w3.org/2000/svg">
<g clip-path="url(#clip0)">
<path d="M5.82938 8.82711C5.82938 8.62669 5.66681 8.46431 5.46622 8.46431H4.19891C3.99854 8.46431 3.83594 8.62669 3.83594 8.82711V10.0943C3.83594 10.295 3.99854 10.4574 4.19891 10.4574H5.46622C5.66681 10.4574 5.82938 10.295 5.82938 10.0943V8.82711Z" fill="#A2A2A2"/>
<path d="M8.99641 8.82711C8.99641 8.62669 8.8338 8.46431 8.6336 8.46431H7.36614C7.16578 8.46431 7.00317 8.62669 7.00317 8.82711V10.0943C7.00317 10.295 7.16578 10.4574 7.36614 10.4574H8.6336C8.8338 10.4574 8.99641 10.295 8.99641 10.0943V8.82711Z" fill="#A2A2A2"/>
<path d="M12.1639 8.82711C12.1639 8.62669 12.0012 8.46431 11.8009 8.46431H10.5336C10.333 8.46431 10.1704 8.62669 10.1704 8.82711V10.0943C10.1704 10.295 10.333 10.4574 10.5336 10.4574H11.8009C12.0012 10.4574 12.1639 10.295 12.1639 10.0943V8.82711Z" fill="#A2A2A2"/>
<path d="M5.82938 11.9946C5.82938 11.7939 5.66681 11.6316 5.46622 11.6316H4.19891C3.99854 11.6316 3.83594 11.7939 3.83594 11.9946V13.2615C3.83594 13.4621 3.99854 13.6245 4.19891 13.6245H5.46622C5.66681 13.6245 5.82938 13.4621 5.82938 13.2615V11.9946Z" fill="#A2A2A2"/>
<path d="M8.99641 11.9946C8.99641 11.7939 8.8338 11.6316 8.6336 11.6316H7.36614C7.16578 11.6316 7.00317 11.7939 7.00317 11.9946V13.2615C7.00317 13.4621 7.16578 13.6245 7.36614 13.6245H8.6336C8.8338 13.6245 8.99641 13.4621 8.99641 13.2615V11.9946Z" fill="#A2A2A2"/>
<path d="M12.1639 11.9946C12.1639 11.7939 12.0012 11.6316 11.801 11.6316H10.5336C10.333 11.6316 10.1704 11.7939 10.1704 11.9946V13.2615C10.1704 13.4621 10.333 13.6245 10.5336 13.6245H11.801C12.0012 13.6245 12.1639 13.4621 12.1639 13.2615V11.9946Z" fill="#A2A2A2"/>
<path d="M14.4299 1.78158V3.71704C14.4299 4.59185 13.7203 5.29681 12.8456 5.29681H11.8461C10.9714 5.29681 10.2523 4.59185 10.2523 3.71704V1.77463H5.74748V3.71704C5.74748 4.59185 5.02842 5.29681 4.15381 5.29681H3.15415C2.27951 5.29681 1.56986 4.59185 1.56986 3.71704V1.78158C0.805411 1.80462 0.177246 2.43718 0.177246 3.21467V14.5574C0.177246 15.3495 0.819275 16.0001 1.61139 16.0001H14.3884C15.1793 16.0001 15.8225 15.3482 15.8225 14.5574V3.21467C15.8225 2.43718 15.1944 1.80462 14.4299 1.78158ZM13.9657 13.8511C13.9657 14.1934 13.6882 14.4711 13.3457 14.4711H2.62674C2.28429 14.4711 2.00674 14.1934 2.00674 13.8511V7.99213C2.00674 7.64968 2.28426 7.37197 2.62674 7.37197H13.3457C13.6881 7.37197 13.9657 7.64968 13.9657 7.99213L13.9657 13.8511Z" fill="#A2A2A2"/>
<path d="M3.15055 4.25917H4.13916C4.43923 4.25917 4.68253 4.01622 4.68253 3.71615V0.543208C4.68253 0.243105 4.43923 0 4.13916 0H3.15055C2.85045 0 2.60718 0.243105 2.60718 0.543208V3.71615C2.60718 4.01622 2.85045 4.25917 3.15055 4.25917Z" fill="#A2A2A2"/>
<path d="M11.8334 4.25917H12.822C13.1219 4.25917 13.3652 4.01622 13.3652 3.71615V0.543208C13.3652 0.243105 13.1219 0 12.822 0H11.8334C11.5333 0 11.29 0.243105 11.29 0.543208V3.71615C11.29 4.01622 11.5333 4.25917 11.8334 4.25917Z" fill="#A2A2A2"/>
</g>
<defs>
<clipPath id="clip0">
<rect width="16" height="16" fill="white"/>
</clipPath>
</defs>
</svg>
