<svg width="16" height="16" viewBox="0 0 16 16" fill="none" xmlns="http://www.w3.org/2000/svg">
<path d="M8 0C3.58878 0 0 3.58878 0 8C0 12.4112 3.58878 16 8 16C12.4112 16 16 12.4112 16 8C16 3.58878 12.4112 0 8 0ZM8 14.6753C4.31925 14.6753 1.32472 11.6807 1.32472 7.99997C1.32472 4.31919 4.31925 1.32472 8 1.32472C11.6807 1.32472 14.6753 4.31919 14.6753 8C14.6753 11.6808 11.6807 14.6753 8 14.6753Z" fill="#A2A2A2"/>
<path d="M8.00005 2.09665C4.74493 2.09665 2.09668 4.7449 2.09668 8.00002C2.09668 11.2551 4.74493 13.9034 8.00005 13.9034C11.2552 13.9034 13.9034 11.2551 13.9034 8.00002C13.9034 4.7449 11.2552 2.09665 8.00005 2.09665ZM11.1648 9.34099H7.61405C7.4009 9.34099 7.22812 9.16821 7.22812 8.95502V5.37337C7.22812 5.16021 7.4009 4.98743 7.61405 4.98743C7.82721 4.98743 8.00002 5.16021 8.00002 5.37337V8.56909H11.1648C11.378 8.56909 11.5508 8.74187 11.5508 8.95502C11.5508 9.16818 11.378 9.34099 11.1648 9.34099Z" fill="#A2A2A2"/>
</svg>
