<svg width="30" height="30" viewBox="0 0 30 30" fill="none" xmlns="http://www.w3.org/2000/svg">
<circle cx="15" cy="15" r="15" fill="#EBEBEB"/>
<path d="M10.1724 11.2103C10.1724 11.2103 10.5345 11.534 10.5345 11.7218V20.0065C10.5345 20.555 11.0541 20.9999 11.6959 20.9999H18.3052C18.9462 20.9999 19.4658 20.555 19.4658 20.0065V11.7225C19.4658 11.534 19.8294 11.211 19.8294 11.211V10.207H10.1724V11.2103ZM16.8982 12.3566H17.7616V18.7541H16.8982V12.3566ZM14.5868 12.3566H15.4481V18.7541H14.5868V12.3566ZM12.5049 12.3566H13.3669V18.7541H12.5049V12.3566Z" fill="#A2A2A2"/>
<path d="M20.25 9.37787H17.5736C17.4402 8.7378 16.7858 8.25 15.9993 8.25H14.0014C13.2149 8.25 12.5605 8.7378 12.4271 9.37787H9.75V9.99091H20.25V9.37787ZM13.3237 9.37787C13.4338 9.15111 13.6964 8.99159 14.0014 8.99159H15.9986C16.3043 8.99159 16.5662 9.15177 16.677 9.37787H13.3237Z" fill="#A2A2A2"/>
</svg>
