<svg width="30" height="30" viewBox="0 0 30 30" fill="none" xmlns="http://www.w3.org/2000/svg">
<circle cx="15" cy="15" r="15" fill="#EBEBEB"/>
<path fill-rule="evenodd" clip-rule="evenodd" d="M8.67417 9.92417C9.02581 9.57254 9.50272 9.375 10 9.375H14.375C14.7202 9.375 15 9.65482 15 10C15 10.3452 14.7202 10.625 14.375 10.625H10C9.83424 10.625 9.67527 10.6908 9.55806 10.8081C9.44085 10.9253 9.375 11.0842 9.375 11.25V20C9.375 20.1658 9.44085 20.3247 9.55806 20.4419C9.67527 20.5592 9.83424 20.625 10 20.625H18.75C18.9158 20.625 19.0747 20.5592 19.1919 20.4419C19.3092 20.3247 19.375 20.1658 19.375 20V15.625C19.375 15.2798 19.6548 15 20 15C20.3452 15 20.625 15.2798 20.625 15.625V20C20.625 20.4973 20.4275 20.9742 20.0758 21.3258C19.7242 21.6775 19.2473 21.875 18.75 21.875H10C9.50272 21.875 9.02581 21.6775 8.67417 21.3258C8.32254 20.9742 8.125 20.4973 8.125 20V11.25C8.125 10.7527 8.32254 10.2758 8.67417 9.92417Z" fill="#A2A2A2"/>
<path fill-rule="evenodd" clip-rule="evenodd" d="M20 9.29932C19.8141 9.29932 19.6359 9.37315 19.5045 9.50458L13.6894 15.3197L13.359 16.6412L14.6805 16.3108L20.4956 10.4957C20.627 10.3643 20.7008 10.186 20.7008 10.0001C20.7008 9.81427 20.627 9.63601 20.4956 9.50458C20.3641 9.37315 20.1859 9.29932 20 9.29932ZM18.6206 8.6207C18.9864 8.25485 19.4826 8.04932 20 8.04932C20.5174 8.04932 21.0136 8.25485 21.3795 8.6207C21.7453 8.98655 21.9508 9.48275 21.9508 10.0001C21.9508 10.5175 21.7453 11.0137 21.3795 11.3796L15.442 17.3171C15.3619 17.3972 15.2615 17.454 15.1516 17.4815L12.6516 18.1065C12.4386 18.1597 12.2133 18.0973 12.0581 17.9421C11.9028 17.7868 11.8404 17.5615 11.8937 17.3486L12.5187 14.8486C12.5461 14.7387 12.603 14.6383 12.6831 14.5582L18.6206 8.6207Z" fill="#A2A2A2"/>
</svg>
