<svg width="20" height="20" viewBox="0 0 20 20" fill="none" xmlns="http://www.w3.org/2000/svg">
<g clip-path="url(#clip0)">
<path d="M2.08332 8.75C0.935 8.75 0 9.685 0 10.8333V17.5C0 18.6483 0.935 19.5833 2.08332 19.5833H4.58332C5.0525 19.5833 5.48414 19.425 5.83332 19.1616V8.75H2.08332Z" fill="#9CD153"/>
<path d="M20.0003 11.8753C20.0003 11.3745 19.802 10.9078 19.4578 10.5636C19.847 10.1378 20.0453 9.56695 19.9911 8.97281C19.8936 7.91363 18.9395 7.08363 17.8178 7.08363H12.6703C12.9253 6.30945 13.3336 4.89031 13.3336 3.75031C13.3336 1.94281 11.7978 0.416992 10.8336 0.416992C9.96781 0.416992 9.34945 0.904492 9.32281 0.924492C9.22449 1.00367 9.16699 1.12367 9.16699 1.25031V4.07613L6.76699 9.27531L6.66699 9.32613V18.2578C7.34531 18.5778 8.20363 18.7503 8.75031 18.7503H16.3995C17.307 18.7503 18.1012 18.1386 18.2878 17.2945C18.3836 16.8603 18.3278 16.4228 18.137 16.0428C18.7528 15.7328 19.167 15.0986 19.167 14.3753C19.167 14.0803 19.0995 13.7978 18.9712 13.542C19.587 13.232 20.0003 12.5978 20.0003 11.8753Z" fill="#9CD153"/>
</g>
<defs>
<clipPath id="clip0">
<rect width="20" height="20" fill="white"/>
</clipPath>
</defs>
</svg>
