<svg width="20" height="20" viewBox="0 0 20 20" fill="none" xmlns="http://www.w3.org/2000/svg">
<g clip-path="url(#clip0)">
<path d="M2.08332 8.75C0.935 8.75 0 9.685 0 10.8333V17.5C0 18.6483 0.935 19.5833 2.08332 19.5833H4.58332C5.0525 19.5833 5.48414 19.425 5.83332 19.1616V8.75H2.08332Z" fill="#F2994A"/>
<path d="M20.0001 11.8753C20.0001 11.3745 19.8017 10.9078 19.4576 10.5636C19.8467 10.1378 20.0451 9.56695 19.9909 8.97281C19.8934 7.91363 18.9392 7.08363 17.8176 7.08363H12.6701C12.9251 6.30945 13.3334 4.89031 13.3334 3.75031C13.3334 1.94281 11.7976 0.416992 10.8334 0.416992C9.96757 0.416992 9.34921 0.904492 9.32257 0.924492C9.22425 1.00367 9.16675 1.12367 9.16675 1.25031V4.07613L6.76675 9.27531L6.66675 9.32613V18.2578C7.34507 18.5778 8.20339 18.7503 8.75007 18.7503H16.3992C17.3067 18.7503 18.1009 18.1386 18.2876 17.2945C18.3834 16.8603 18.3276 16.4228 18.1367 16.0428C18.7526 15.7328 19.1667 15.0986 19.1667 14.3753C19.1667 14.0803 19.0992 13.7978 18.9709 13.542C19.5867 13.232 20.0001 12.5978 20.0001 11.8753Z" fill="#F2994A"/>
</g>
<defs>
<clipPath id="clip0">
<rect width="20" height="20" fill="white"/>
</clipPath>
</defs>
</svg>
