<svg width="40" height="28" viewBox="0 0 40 28" fill="none" xmlns="http://www.w3.org/2000/svg">
<path d="M39.9507 23.2699C39.9125 23.2255 39.8562 23.1992 39.7971 23.1992H0.203029C0.143883 23.1992 0.0880224 23.2251 0.0494128 23.2699C0.0108033 23.3142 -0.00644776 23.3738 0.00217777 23.4325C0.00792813 23.4695 0.605144 27.1358 5.24034 27.1358H34.7598C39.3946 27.1358 39.9918 23.4695 39.998 23.4325C40.0062 23.3738 39.9889 23.3142 39.9507 23.2699ZM22.9777 25.8518H17.022V24.4824H22.9777V25.8518Z" fill="#639A88"/>
<path d="M4.31562 21.7739H35.6838C36.1373 21.7739 36.5053 21.4059 36.5053 20.9524V1.68623C36.5053 1.23277 36.1373 0.864746 35.6838 0.864746H4.31562C3.86216 0.864746 3.49414 1.23277 3.49414 1.68623V20.9524C3.49414 21.4059 3.86216 21.7739 4.31562 21.7739ZM6.36932 3.73993H33.6301V18.8987H6.36932V3.73993Z" fill="#639A88"/>
</svg>
