<svg width="30" height="30" viewBox="0 0 30 30" fill="none" xmlns="http://www.w3.org/2000/svg">
<circle cx="15" cy="15" r="15" fill="#EBEBEB"/>
<path d="M16.2116 17.9976C16.1823 17.9685 16.1426 17.9522 16.1013 17.9522C16.06 17.9522 16.0203 17.9685 15.9909 17.9976L13.7215 20.2672C12.6707 21.3181 10.8974 21.4294 9.73723 20.2672C8.57516 19.1051 8.68648 17.3335 9.73723 16.2827L12.0067 14.013C12.0672 13.9525 12.0672 13.8528 12.0067 13.7923L11.2294 13.0149C11.2 12.9858 11.1603 12.9695 11.119 12.9695C11.0777 12.9695 11.038 12.9858 11.0087 13.0149L8.73922 15.2846C7.08693 16.937 7.08693 19.6109 8.73922 21.2614C10.3915 22.9119 13.0652 22.9138 14.7156 21.2614L16.985 18.9918C17.0456 18.9312 17.0456 18.8316 16.985 18.7711L16.2116 17.9976ZM21.2622 8.73932C19.61 7.08689 16.9362 7.08689 15.2859 8.73932L13.0145 11.009C12.9854 11.0383 12.9691 11.078 12.9691 11.1193C12.9691 11.1606 12.9854 11.2003 13.0145 11.2297L13.7898 12.0051C13.8504 12.0657 13.95 12.0657 14.0105 12.0051L16.28 9.73546C17.3307 8.68463 19.1041 8.57329 20.2642 9.73546C21.4263 10.8976 21.315 12.6692 20.2642 13.72L17.9948 15.9897C17.9657 16.019 17.9494 16.0587 17.9494 16.1C17.9494 16.1414 17.9657 16.181 17.9948 16.2104L18.7721 16.9878C18.8326 17.0483 18.9322 17.0483 18.9928 16.9878L21.2622 14.7181C22.9126 13.0657 22.9126 10.3917 21.2622 8.73932ZM16.9167 12.2727C16.8873 12.2436 16.8477 12.2273 16.8063 12.2273C16.765 12.2273 16.7254 12.2436 16.696 12.2727L12.2723 16.6948C12.2432 16.7242 12.2269 16.7638 12.2269 16.8051C12.2269 16.8465 12.2432 16.8861 12.2723 16.9155L13.0457 17.689C13.1063 17.7495 13.2059 17.7495 13.2664 17.689L17.6881 13.2669C17.7487 13.2063 17.7487 13.1067 17.6881 13.0462L16.9167 12.2727Z" fill="#A2A2A2"/>
</svg>
