<svg width="91" height="80" viewBox="0 0 91 80" fill="none" xmlns="http://www.w3.org/2000/svg">
<g clip-path="url(#clip0)">
<path d="M83.3931 55.9977C83.1783 54.9727 82.6413 52.2755 82.3728 50.9808L73.8885 8.74209C72.2239 3.02395 67.23 0.812218 62.4508 0.164881C51.6575 -1.34557 49.4559 8.20264 47.9524 15.9707L47.0932 20.3402L43.388 38.3038L43.0658 39.9761L41.1864 30.5357L40.2735 26.1662C39.844 23.9006 39.307 21.473 38.5552 19.2074C38.6626 19.2613 38.7163 19.2613 38.7163 19.2613C37.0517 13.5971 32.0577 11.3854 27.3323 10.6841C16.4316 9.17365 14.2837 18.7219 12.7264 26.4899L8.3769 48.2296L7.83992 51.0347C7.57143 52.3294 7.03445 55.0266 6.81965 56.0516C5.36981 63.442 0 60.8527 0 60.8527C1.66464 66.5708 6.65856 68.7825 11.4377 69.4299C22.3384 70.9403 24.4863 61.3921 26.0436 53.6241L26.5805 50.9269L29.3191 64.7906C29.8024 67.1642 30.3394 69.6996 31.1449 72.0732L31.1986 72.1271C33.078 77.1979 37.8034 79.2478 42.3141 79.8952C42.8511 79.9491 43.388 80.003 43.8713 80.057L43.925 80.1109H43.9787C53.4296 80.4885 55.4701 71.5337 56.9199 64.1433L61.3232 42.1339L61.5917 40.7313L64.2229 53.678C65.7801 61.4461 67.9281 70.9943 78.8288 69.4838C83.6079 68.8365 88.5481 66.6248 90.2664 60.9066C90.2127 60.7448 84.8429 63.3881 83.3931 55.9977Z" fill="#7F7F7F"/>
<path d="M83.3931 55.9946C83.1783 54.9697 82.6413 52.2724 82.3728 50.9778L73.8885 8.73907L72.0628 7.12073L66.8541 7.28256L53.0537 16.0216C52.4093 16.9926 51.8723 18.0715 51.4965 19.3122C51.4965 19.3122 56.8663 16.6689 58.3161 24.0594C58.5309 25.0843 59.0679 27.7815 59.3364 29.0762L59.8734 31.8813L61.3769 39.5415L64.2229 53.5132C65.7801 61.2812 67.9281 70.8294 78.8288 69.319C83.6079 68.6716 88.5481 66.4599 90.2665 60.7418C90.2128 60.7418 84.8429 63.385 83.3931 55.9946Z" fill="url(#paint0_linear)"/>
<path d="M48.4893 67.2151C48.2745 66.1902 47.7375 63.4929 47.469 62.1983L41.1864 30.5327L40.2735 26.1632C39.7902 23.7896 39.4143 21.2003 38.5552 18.8807L32.7558 13.1086L18.1499 18.8807C19.385 19.4741 20.5663 20.8227 21.157 23.7357C21.3718 24.7606 21.9088 27.4579 22.1773 28.7525L29.3191 64.7337C29.8024 67.1072 30.3394 69.6426 31.1448 72.0162L43.925 80L52.8925 72.3938C51.2816 72.2859 49.2948 71.261 48.4893 67.2151Z" fill="url(#paint1_linear)"/>
<path d="M27.3323 10.6811C16.4316 9.1706 14.2837 18.7188 12.7264 26.4869L8.3769 48.2266L7.83992 51.0317C7.57143 52.3264 7.03445 55.0236 6.81965 56.0486C5.36981 63.439 0 60.8496 0 60.8496C1.66464 66.5678 6.65856 68.7795 11.4377 69.4268C22.3384 70.9373 24.4863 61.3891 26.0436 53.621L30.3394 31.8274L30.8764 29.0223C31.1449 27.7276 31.6819 25.0303 31.8967 24.0054C33.3465 16.615 38.7163 19.2583 38.7163 19.2583C37.0517 13.5941 32.0577 11.3823 27.3323 10.6811Z" fill="url(#paint2_linear)"/>
<path d="M62.5046 0.161891C51.6576 -1.34856 49.4559 8.19965 47.9524 15.9677L47.0932 20.3372L43.3881 38.3008L38.77 61.4431C38.5015 62.7377 37.9646 65.435 37.7498 66.4599C36.2999 73.8503 30.8764 71.2071 30.8764 71.2071C32.541 76.9252 37.5887 79.1369 42.3141 79.7843C53.2148 81.2947 55.3627 71.7465 56.92 63.9785L61.3232 41.969L66.1023 18.5031C66.3708 17.2084 66.9078 14.5112 67.1226 13.4862C68.5724 6.09581 73.9423 8.7391 73.9423 8.7391C72.2776 3.02096 67.2837 0.809227 62.5046 0.161891Z" fill="url(#paint3_linear)"/>
<path d="M30.3394 31.8274L30.8764 29.0223C31.1449 27.7276 31.6819 25.0303 31.8967 24.0054C32.541 20.8227 33.8835 19.528 35.2259 19.0425C33.6687 19.2583 31.9504 20.445 31.1986 24.2212C30.9838 25.2461 30.4468 27.9434 30.1783 29.238L29.6413 32.0432L25.2918 53.7829C24.0567 60.0405 22.3921 67.4848 16.1094 69.3189C22.9828 67.8624 24.7011 60.0944 25.9899 53.621L30.3394 31.8274Z" fill="url(#paint4_linear)"/>
<path d="M66.3708 13.702C66.156 14.7269 65.6191 17.4241 65.3506 18.7188L60.5714 42.1848L56.1682 64.1942C54.9331 70.4518 53.2685 77.8962 46.9858 79.7303C53.8592 78.2738 55.5775 70.5057 56.8663 64.0324L61.2695 42.0229L66.0486 18.557C66.3171 17.2623 66.8541 14.5651 67.0689 13.5401C67.7133 10.3574 69.0557 9.06271 70.3982 8.57721C68.8409 8.79299 67.1226 9.92583 66.3708 13.702Z" fill="url(#paint5_linear)"/>
</g>
<defs>
<linearGradient id="paint0_linear" x1="59.8692" y1="-1.08701" x2="80.8578" y2="76.7853" gradientUnits="userSpaceOnUse">
<stop stop-color="#4F7886"/>
<stop offset="1" stop-color="#8AEBF1"/>
</linearGradient>
<linearGradient id="paint1_linear" x1="25.6529" y1="4.30404" x2="51.8366" y2="85.459" gradientUnits="userSpaceOnUse">
<stop stop-color="#4F7886"/>
<stop offset="1" stop-color="#8AEBF1"/>
</linearGradient>
<linearGradient id="paint2_linear" x1="10.4695" y1="81.5502" x2="28.8723" y2="-3.53001" gradientUnits="userSpaceOnUse">
<stop stop-color="#218196"/>
<stop offset="1" stop-color="#72FFEE"/>
</linearGradient>
<linearGradient id="paint3_linear" x1="42.0335" y1="88.3784" x2="60.4365" y2="3.29717" gradientUnits="userSpaceOnUse">
<stop stop-color="#2093A3"/>
<stop offset="1" stop-color="#72EEFF"/>
</linearGradient>
<linearGradient id="paint4_linear" x1="32.422" y1="17.4968" x2="22.7027" y2="68.3837" gradientUnits="userSpaceOnUse">
<stop offset="0.00259088" stop-color="#6DEDE5"/>
<stop offset="1" stop-color="#227BA0"/>
</linearGradient>
<linearGradient id="paint5_linear" x1="66.9641" y1="6.38975" x2="51.2547" y2="77.5667" gradientUnits="userSpaceOnUse">
<stop offset="0.00259088" stop-color="#6DEDE5"/>
<stop offset="1" stop-color="#227BA0"/>
</linearGradient>
<clipPath id="clip0">
<rect width="90.2128" height="80" fill="white"/>
</clipPath>
</defs>
</svg>
