<svg width="108" height="40" viewBox="0 0 108 40" fill="none" xmlns="http://www.w3.org/2000/svg">
<path d="M103.475 18.6164H49.061L50.6865 9.46202H105.101L103.475 18.6164Z" fill="#CCE8AF"/>
<path d="M95.1932 22.5397H88.7688C88.1495 22.5397 87.5303 23.0013 87.4529 23.6167L86.2919 30.0017C86.1371 30.8479 86.7563 31.5403 87.6077 31.5403H94.0322C94.6514 31.5403 95.2706 31.0787 95.348 30.4633L96.5091 24.0783C96.6639 23.309 96.0446 22.5397 95.1932 22.5397Z" fill="#CCE8AF"/>
<path d="M53.0086 25.3091H74.604" stroke="#CCE8AF" stroke-width="3.0802" stroke-miterlimit="10" stroke-linecap="round" stroke-linejoin="round"/>
<path d="M52.2345 30.6941H64.3868" stroke="#CCE8AF" stroke-width="3.0802" stroke-miterlimit="10" stroke-linecap="round" stroke-linejoin="round"/>
<path d="M97.9023 37.8484H48.674C47.1259 37.8484 45.8875 36.4637 46.1971 34.8482L51.6927 4.07706C51.9249 2.84621 52.9312 2.00001 54.1696 2.00001H103.475C105.023 2.00001 106.262 3.38471 105.952 5.00019L100.457 35.7713C100.224 37.0022 99.1408 37.8484 97.9023 37.8484Z" stroke="#639A88" stroke-width="3.0802" stroke-miterlimit="10" stroke-linecap="round" stroke-linejoin="round"/>
<path d="M18.0998 13.2315H44.262" stroke="#639A88" stroke-width="3.5935" stroke-miterlimit="10" stroke-linecap="round" stroke-linejoin="round"/>
<path d="M33.89 19.9242H42.4043" stroke="#639A88" stroke-width="3.5935" stroke-miterlimit="10" stroke-linecap="round" stroke-linejoin="round"/>
<path d="M16.2422 19.9242H26.8464" stroke="#639A88" stroke-width="3.5935" stroke-miterlimit="10" stroke-linecap="round" stroke-linejoin="round"/>
<path d="M2 26.6938H41.3207" stroke="#639A88" stroke-width="3.5935" stroke-miterlimit="10" stroke-linecap="round" stroke-linejoin="round"/>
</svg>
