<svg width="81" height="80" viewBox="0 0 81 80" fill="none" xmlns="http://www.w3.org/2000/svg">
<g clip-path="url(#clip0)">
<path d="M50.717 22.7338L50.6778 15.6704L11.1192 20.654C6.05659 21.2819 2.44608 25.9516 3.074 31.0137C3.70191 36.0759 8.33278 39.6861 13.3953 39.0582L51.2664 34.3885" fill="#70994B"/>
<path d="M27.2487 18.8097L27.288 8.37148L67.5137 3.0739C72.5763 2.44604 77.2072 6.05624 77.8351 11.1184C78.463 16.1805 74.8525 20.811 69.7899 21.4388L50.4816 23.7541L50.4031 15.5526L27.2487 18.8097Z" fill="#3A5E35"/>
<path d="M27.2487 17.3577V8.17527L67.5137 3.0739C72.5763 2.44604 77.2072 6.05624 77.8351 11.1184C78.463 16.1805 74.8525 20.811 69.7899 21.4388L16.8489 27.9529V39.4899" stroke="#456E3F" stroke-width="6" stroke-miterlimit="10" stroke-linecap="round" stroke-linejoin="round"/>
<path d="M50.717 22.7338L50.6778 15.6704L11.1192 20.654C6.05659 21.2819 2.44608 25.9516 3.074 31.0137C3.70191 36.0759 8.33278 39.6861 13.3953 39.0582L51.2664 34.3885" stroke="#7BA74F" stroke-width="6" stroke-miterlimit="10" stroke-linecap="round" stroke-linejoin="round"/>
<path d="M77.7958 11.0399C78.4237 16.102 74.8132 20.7325 69.7507 21.3604L16.8489 27.9529L16.8096 67.155L69.7507 60.4447C74.8132 59.8169 78.4237 55.1864 77.7958 50.1242L77.8743 50.3205L77.8351 11.1184" fill="#456E3F"/>
<path d="M77.7958 11.0399C78.4237 16.102 74.8132 20.7325 69.7507 21.3604L16.8489 27.9529L16.8096 67.155L69.7507 60.4447C74.8132 59.8169 78.4237 55.1864 77.7958 50.1242L77.8743 50.3205L77.8351 11.1184" stroke="#456E3F" stroke-width="6" stroke-miterlimit="10" stroke-linecap="round" stroke-linejoin="round"/>
<path d="M79.0124 44.552C78.0706 49.3394 75.3234 54.4016 69.4367 55.0294L23.3635 60.4055V38.3126C23.442 38.3126 23.5205 38.3518 23.599 38.3518C26.8955 38.7443 29.8781 36.3505 30.2706 33.0543C30.3098 32.8581 30.3098 32.6226 30.3098 32.4264L65.473 28.0314C72.5763 27.1681 77.6781 24.4997 79.0124 20.811L78.9732 15.2387C78.0313 20.8502 73.5182 24.225 65.1198 25.2845L21.7937 30.6998C21.0873 30.7783 20.5771 31.3669 20.5771 32.0732V61.9359C20.5771 62.3283 20.7341 62.7207 21.0481 62.9562C21.2836 63.1916 21.6368 63.3093 21.9507 63.3093C21.99 63.3093 22.0684 63.3093 22.1077 63.3093L69.7114 57.7371C73.8714 57.3054 78.3845 53.5775 79.0124 50.6736V44.552Z" fill="#3A5E35"/>
<path d="M3.07403 29.758C3.70195 34.8201 8.33282 38.4303 13.3954 37.8025L67.0036 31.0922L66.9643 70.2158L13.3561 76.9653C8.29357 77.5932 3.6627 73.9438 3.03479 68.9209V29.601V29.8757" fill="#7BA74F"/>
<path d="M3.07403 29.758C3.70195 34.8201 8.33282 38.4303 13.3954 37.8025L67.0036 31.0922L66.9643 70.2158L13.3561 76.9653C8.29357 77.5932 3.6627 73.9438 3.03479 68.9209V29.601V29.8757" stroke="#7BA74F" stroke-width="6" stroke-miterlimit="10" stroke-linecap="round" stroke-linejoin="round"/>
<path d="M63.1576 35.1733C62.8436 34.8986 62.4512 34.7809 62.0587 34.8201L16.6134 40.5101C11.8648 40.8633 7.23394 39.6468 4.52606 37.2924C3.23099 36.1544 2.32836 34.8201 1.89667 33.329V38.3126C2.13214 38.705 2.3676 39.0975 2.72081 39.4114C6.0566 42.276 11.3546 43.7279 16.8881 43.2963C16.9274 43.2963 16.9274 43.2963 16.9666 43.2963L54.8377 38.5873C54.9162 41.8443 57.5848 44.4343 60.8421 44.4343H60.8814V59.4245C57.7026 59.5814 55.1909 62.2106 55.1909 65.4284C55.1909 65.6638 55.1909 65.8993 55.2302 66.1347L16.6527 70.9222C10.5697 71.3146 3.58419 68.9601 1.93591 61.4258L1.89667 66.5664C3.81966 71.0399 9.51013 73.6298 15.2791 73.6298C15.7893 73.6298 16.2995 73.6298 16.8096 73.5906C16.8489 73.5906 16.8489 73.5906 16.8881 73.5906L62.3727 67.9791C63.0791 67.9006 63.5893 67.312 63.5893 66.6056L63.6285 36.2328C63.6285 35.8404 63.4323 35.448 63.1576 35.1733Z" fill="#70994B"/>
</g>
<defs>
<clipPath id="clip0">
<rect width="80.9091" height="80" fill="white"/>
</clipPath>
</defs>
</svg>
