<svg width="80" height="80" viewBox="0 0 80 80" fill="none" xmlns="http://www.w3.org/2000/svg">
<g clip-path="url(#clip0)">
<path d="M52.7916 56.042L56.4484 50.1084L63.0474 47.858L63.7785 40.927L68.7434 36.0392L66.3827 29.4786L68.7434 22.9178L63.7785 18.03L63.0474 11.0992L56.4484 8.84875L52.7916 2.915L45.8751 3.75L39.9996 0L34.1241 3.74984L27.2077 2.91484L23.551 8.84859L16.952 11.0991L16.2209 18.0298L11.2559 22.9177L13.6165 29.4784L11.2559 36.0392L16.2207 40.9269L16.9518 47.8578L23.5509 50.1084L27.2076 56.0422L34.1241 55.2072L39.5024 58.6398H40.4968L45.8751 55.2072L52.7916 56.042ZM19.7849 29.4784C19.7849 18.332 28.8532 9.26375 39.9996 9.26375C51.146 9.26375 60.2143 18.332 60.2143 29.4784C60.2143 40.6248 51.146 49.6931 39.9996 49.6931C28.8532 49.6931 19.7849 40.6248 19.7849 29.4784Z" fill="#D3542C"/>
<path d="M39.9997 13.9521C31.4386 13.9521 24.4736 20.9172 24.4736 29.4783C24.4736 38.0394 31.4386 45.0045 39.9997 45.0045C48.5608 45.0045 55.5258 38.0395 55.5258 29.4784C55.5258 20.9173 48.561 13.9521 39.9997 13.9521Z" fill="#D3542C"/>
<path d="M46.9821 60.0635L42.3447 63.0232V75.318L55.0429 80.0004V61.0366L46.9821 60.0635Z" fill="#D3542C"/>
<path d="M37.6561 63.0232L33.0188 60.0635L24.958 61.0366V80.0004L37.6561 75.318V63.0232Z" fill="#D3542C"/>
</g>
<defs>
<clipPath id="clip0">
<rect width="80" height="80" fill="white"/>
</clipPath>
</defs>
</svg>
