<svg width="15" height="24" viewBox="0 0 15 24" fill="none" xmlns="http://www.w3.org/2000/svg">
<path d="M12.7013 0H2.29866C1.43199 0 0.722656 0.728914 0.722656 1.62103V22.3783C0.722656 23.2704 1.43199 24 2.29866 24H12.7013C13.568 24 14.2773 23.2718 14.2773 22.379V1.62103C14.2773 0.728914 13.568 0 12.7013 0ZM5.83599 1.16846H9.16399C9.26932 1.16846 9.35466 1.25623 9.35466 1.36526C9.35466 1.4736 9.26932 1.56137 9.16399 1.56137H5.83599C5.73066 1.56137 5.64532 1.4736 5.64532 1.36526C5.64532 1.25623 5.73066 1.16846 5.83599 1.16846ZM7.49999 23.1895C7.06466 23.1895 6.71199 22.8267 6.71199 22.3783C6.71199 21.9298 7.06466 21.5678 7.49999 21.5678C7.93532 21.5678 8.28799 21.9298 8.28799 22.3783C8.28799 22.8267 7.93532 23.1895 7.49999 23.1895ZM13.1807 21H1.81932V2.57074H13.1807V21Z" fill="#A8A8A8"/>
</svg>
