<svg width="16" height="16" viewBox="0 0 16 16" fill="none" xmlns="http://www.w3.org/2000/svg">
<path d="M8 0C3.58213 0 0 3.58166 0 8C0 12.4183 3.58213 16 8 16C12.4188 16 16 12.4183 16 8C16 3.58166 12.4188 0 8 0ZM10.9524 5.33582C11.5849 5.33582 12.0983 5.84923 12.0983 6.48175C12.0983 7.11428 11.5845 7.62768 10.9524 7.62768C10.3199 7.62768 9.80648 7.11428 9.80648 6.48175C9.80648 5.84923 10.3199 5.33582 10.9524 5.33582ZM5.04712 5.33582C5.68012 5.33582 6.19305 5.84923 6.19305 6.48175C6.19305 7.11428 5.68012 7.62768 5.04712 7.62768C4.4146 7.62768 3.9012 7.11428 3.9012 6.48175C3.9012 5.84923 4.41507 5.33582 5.04712 5.33582ZM12.3165 10.7814C11.3364 12.2044 9.72239 13.0537 8 13.0537C6.27667 13.0537 4.66219 12.2044 3.6835 10.781C3.46394 10.4624 3.54476 10.026 3.86382 9.80648C4.18289 9.58645 4.61874 9.66774 4.83831 9.9868C5.55585 11.03 6.73822 11.6522 8.00047 11.6522C9.26272 11.6522 10.4441 11.03 11.1636 9.9868C11.3831 9.66867 11.8185 9.58785 12.138 9.80695C12.4552 10.0265 12.5356 10.4624 12.3165 10.7814Z" fill="#A2A2A2"/>
</svg>
