<svg width="21" height="20" viewBox="0 0 21 20" fill="none" xmlns="http://www.w3.org/2000/svg">
<path d="M20.1277 7.04257L13.8923 6.1301L11.1049 0.440169C11.0288 0.284382 10.9035 0.158269 10.7488 0.0816118C10.3608 -0.111267 9.88923 0.0494654 9.69522 0.440169L6.90781 6.1301L0.672377 7.04257C0.500467 7.0673 0.343291 7.1489 0.222954 7.27254C0.0774729 7.4231 -0.00269386 7.62566 6.91225e-05 7.8357C0.0028321 8.04575 0.0882987 8.24609 0.237689 8.39272L4.74911 12.8215L3.68326 19.0753C3.65827 19.2207 3.67426 19.3703 3.72942 19.5071C3.78457 19.6439 3.87669 19.7624 3.99533 19.8492C4.11396 19.9359 4.25437 19.9875 4.40062 19.998C4.54687 20.0085 4.69312 19.9775 4.82278 19.9086L10.4 16.9561L15.9773 19.9086C16.1296 19.9902 16.3064 20.0174 16.4759 19.9877C16.9032 19.9135 17.1905 19.5055 17.1168 19.0753L16.051 12.8215L20.5624 8.39272C20.6852 8.27156 20.7662 8.1133 20.7908 7.9402C20.8571 7.50746 20.5575 7.10686 20.1277 7.04257Z" fill="#F7D45B"/>
</svg>
