<svg width="24" height="28" viewBox="0 0 24 28" fill="none" xmlns="http://www.w3.org/2000/svg">
<path d="M21.3506 0H2.6476C1.46862 0 0.519531 0.850856 0.519531 1.90187V26.099C0.519531 27.1467 1.46862 28 2.6476 28H21.3506C22.5259 28 23.4796 27.1475 23.4796 26.099V1.90187C23.4814 0.850856 22.5268 0 21.3506 0ZM12 27.2875C11.3002 27.2875 10.7343 26.7826 10.7343 26.1591C10.7343 25.5347 11.3002 25.029 12 25.029C12.698 25.029 13.2658 25.5347 13.2658 26.1591C13.2658 26.7826 12.698 27.2875 12 27.2875ZM21.3257 24.0398H2.67437V2.28487H21.3257V24.0398Z" fill="#A8A8A8"/>
</svg>
