<svg width="30" height="30" viewBox="0 0 30 30" fill="none" xmlns="http://www.w3.org/2000/svg">
<circle cx="15" cy="15" r="15" fill="#EBEBEB"/>
<path d="M15 9.75C11.8475 9.75 8.98865 11.4748 6.8791 14.2762C6.70697 14.5058 6.70697 14.8264 6.8791 15.0559C8.98865 17.8608 11.8475 19.5855 15 19.5855C18.1525 19.5855 21.0114 17.8608 23.1209 15.0593C23.293 14.8298 23.293 14.5091 23.1209 14.2796C21.0114 11.4748 18.1525 9.75 15 9.75ZM15.2261 18.1308C13.1335 18.2624 11.4053 16.5377 11.537 14.4416C11.645 12.7135 13.0457 11.3127 14.7739 11.2047C16.8665 11.0731 18.5947 12.7979 18.463 14.8939C18.3516 16.6187 16.9509 18.0194 15.2261 18.1308ZM15.1215 16.5309C13.9942 16.6018 13.0626 15.6736 13.1369 14.5463C13.1942 13.6147 13.9503 12.862 14.8819 12.8012C16.0092 12.7304 16.9408 13.6586 16.8665 14.7859C16.8058 15.7208 16.0497 16.4735 15.1215 16.5309Z" fill="#A2A2A2"/>
</svg>
