<svg width="19" height="14" viewBox="0 0 19 14" fill="none" xmlns="http://www.w3.org/2000/svg">
<path d="M9.16667 1C5.66389 1 2.48739 2.92896 0.143449 6.06211C-0.0478163 6.31881 -0.0478163 6.67742 0.143449 6.93411C2.48739 10.071 5.66389 12 9.16667 12C12.6694 12 15.8459 10.071 18.1899 6.93789C18.3812 6.68119 18.3812 6.32258 18.1899 6.06589C15.8459 2.92896 12.6694 1 9.16667 1ZM9.41794 10.373C7.09275 10.5202 5.1726 8.59128 5.31886 6.24708C5.43887 4.31434 6.99524 2.74777 8.9154 2.62697C11.2406 2.47975 13.1607 4.40872 13.0145 6.75292C12.8907 8.68188 11.3343 10.2485 9.41794 10.373ZM9.30168 8.58373C8.04908 8.66301 7.014 7.62491 7.0965 6.3641C7.16026 5.32224 8.00032 4.48044 9.03541 4.41249C10.288 4.33322 11.3231 5.37131 11.2406 6.63212C11.1731 7.67776 10.333 8.51956 9.30168 8.58373Z" fill="#AEAEAE"/>
<line x1="17.3037" y1="0.397179" x2="0.303725" y2="13.3972" stroke="#AEAEAE"/>
</svg>
