<svg width="16" height="16" viewBox="0 0 16 16" fill="none" xmlns="http://www.w3.org/2000/svg">
<path d="M3.73894 3.24416L10.1174 1.50312L9.77959 0.820357C9.55859 0.376562 9.01957 0.193294 8.57577 0.414293L2.86572 3.24416H3.73894Z" fill="#A2A2A2"/>
<path d="M12.0974 1.55339C12.0183 1.55339 11.9392 1.56417 11.8602 1.58573L10.3617 1.99539L5.7854 3.24412H10.9798H13.2437L12.9634 2.21639C12.8556 1.81571 12.4926 1.55339 12.0974 1.55339Z" fill="#A2A2A2"/>
<path d="M14.1799 3.873H13.9751H13.6966H13.4181H11.2925H3.48209H2.45795H1.59551H1.4356H0.900168C0.616283 3.873 0.362942 4.00416 0.197642 4.21079C0.122179 4.30602 0.0646828 4.41562 0.0323414 4.536C0.0125772 4.61146 0 4.69052 0 4.77137V4.87918V5.90332V14.781C0 15.2769 0.402471 15.6794 0.898372 15.6794H14.1781C14.674 15.6794 15.0765 15.2769 15.0765 14.781V12.2746H9.74554C8.90286 12.2746 8.2183 11.59 8.2183 10.7473V9.92443V9.64594V9.36744V8.74936C8.2183 8.33611 8.38359 7.96061 8.65132 7.68571C8.88849 7.44133 9.20651 7.27603 9.56227 7.23471C9.62156 7.22754 9.68265 7.22393 9.74374 7.22393H14.329H14.6075H14.886H15.0765V4.77137C15.0783 4.27547 14.6758 3.873 14.1799 3.873Z" fill="#A2A2A2"/>
<path d="M15.7071 8.08283C15.6173 8.00018 15.5113 7.93729 15.3927 7.89597C15.3011 7.86544 15.204 7.84747 15.1016 7.84747H15.0783H15.0603H14.7818H13.7774H9.74554C9.24962 7.84747 8.84717 8.24993 8.84717 8.74584V9.19322V9.47171V9.75021V10.7456C8.84717 11.2415 9.24962 11.644 9.74554 11.644H15.0783H15.1016C15.204 11.644 15.3011 11.626 15.3927 11.5955C15.5113 11.5559 15.6173 11.4913 15.7071 11.4086C15.8868 11.2451 16 11.0079 16 10.7456V8.74584C16 8.4835 15.8868 8.24631 15.7071 8.08283ZM11.6213 9.92449C11.6213 10.1724 11.4201 10.3737 11.1722 10.3737H10.8739C10.6259 10.3737 10.4247 10.1724 10.4247 9.92449V9.62623C10.4247 9.48249 10.4912 9.35491 10.5972 9.27405C10.6745 9.21476 10.7697 9.17705 10.8739 9.17705H10.9494H11.1722C11.4201 9.17705 11.6213 9.37826 11.6213 9.62623V9.92449Z" fill="#A2A2A2"/>
</svg>
