<svg width="721" height="30" viewBox="0 0 721 30" fill="none" xmlns="http://www.w3.org/2000/svg">
<mask maskUnits="userSpaceOnUse" x="0" y="0" width="0" height="0" fill="black">
<rect fill="white" width="0" height="0"/>
</mask>
<path d="M0.585787 13.5858C-0.195262 14.3668 -0.195262 15.6332 0.585787 16.4142L13.3137 29.1421C14.0948 29.9232 15.3611 29.9232 16.1421 29.1421C16.9232 28.3611 16.9232 27.0948 16.1421 26.3137L4.82843 15L16.1421 3.68629C16.9232 2.90524 16.9232 1.63891 16.1421 0.857866C15.3611 0.0768179 14.0948 0.0768178 13.3137 0.857866L0.585787 13.5858ZM720.414 16.4143C721.195 15.6332 721.195 14.3669 720.414 13.5858L707.686 0.857926C706.905 0.0768784 705.639 0.0768782 704.858 0.857926C704.077 1.63897 704.077 2.9053 704.858 3.68635L716.172 15.0001L704.858 26.3138C704.077 27.0948 704.077 28.3611 704.858 29.1422C705.639 29.9232 706.905 29.9232 707.686 29.1422L720.414 16.4143ZM2 17L719 17.0001L719 13.0001L2 13L2 17Z" fill="#ECF2F9" mask="url(#)"/>
</svg>
