<svg width="26" height="26" viewBox="0 0 26 26" fill="none" xmlns="http://www.w3.org/2000/svg">
<path d="M13 26C20.1797 26 26 20.1797 26 13C26 5.8203 20.1797 0 13 0C5.8203 0 0 5.8203 0 13C0 20.1797 5.8203 26 13 26Z" fill="#99D19D"/>
<path d="M25.7564 5.34218L23.461 3.06715C23.1563 2.76245 22.6485 2.76245 22.3235 3.06715L12.5125 13.2031L8.26717 9.01875C7.96247 8.71405 7.45466 8.71405 7.12968 9.01875L5.0984 11.0297C4.7937 11.3344 4.7937 11.8422 5.0984 12.1469L11.8828 18.8704C12.0657 19.0532 12.3094 19.1141 12.5532 19.0938C12.7969 19.1141 13.0406 19.0531 13.2235 18.8704L25.7564 6.47967C26.0611 6.15464 26.0611 5.64683 25.7564 5.34218Z" fill="white"/>
</svg>
