<svg width="6" height="11" viewBox="0 0 6 11" fill="none" xmlns="http://www.w3.org/2000/svg">
<path d="M0.171614 5.95237L5.37231 10.9023C5.43233 10.9594 5.50257 10.9928 5.57542 10.999C5.64826 11.0051 5.72095 10.9838 5.7856 10.9372C5.85025 10.8906 5.9044 10.8206 5.94219 10.7348C5.97998 10.649 5.99998 10.5505 6 10.4502V0.550356C6.00005 0.44997 5.98011 0.35148 5.94235 0.26556C5.90459 0.179641 5.85044 0.109568 5.78578 0.0629377C5.72111 0.0163071 5.6484 -0.00510348 5.57552 0.00102654C5.50263 0.00715656 5.43236 0.0405933 5.37231 0.097713L0.171614 5.04763C0.11863 5.09847 0.0753596 5.16614 0.0454811 5.2449C0.0156027 5.32366 0 5.41117 0 5.5C0 5.58883 0.0156027 5.67634 0.0454811 5.7551C0.0753596 5.83386 0.11863 5.90153 0.171614 5.95237Z" fill="#CECECE"/>
</svg>
