<svg width="6" height="11" viewBox="0 0 6 11" fill="none" xmlns="http://www.w3.org/2000/svg">
<path d="M5.82839 5.95237L0.627685 10.9023C0.567667 10.9594 0.497431 10.9928 0.424583 10.999C0.351735 11.0051 0.279051 10.9838 0.214401 10.9372C0.149751 10.8906 0.0955987 10.8206 0.057807 10.7348C0.0200152 10.649 2.47955e-05 10.5505 4.76837e-07 10.4502V0.550356C-4.81606e-05 0.44997 0.0198889 0.35148 0.057651 0.26556C0.0954137 0.179641 0.14956 0.109568 0.214224 0.0629377C0.278887 0.0163071 0.3516 -0.00510348 0.424483 0.00102654C0.497366 0.00715656 0.567639 0.0405933 0.627685 0.097713L5.82839 5.04763C5.88137 5.09847 5.92464 5.16614 5.95452 5.2449C5.9844 5.32366 6 5.41117 6 5.5C6 5.58883 5.9844 5.67634 5.95452 5.7551C5.92464 5.83386 5.88137 5.90153 5.82839 5.95237Z" fill="#CECECE"/>
</svg>
