<svg width="26" height="26" viewBox="0 0 26 26" fill="none" xmlns="http://www.w3.org/2000/svg">
<circle cx="13" cy="13" r="13" fill="#639A88"/>
<path d="M13.6979 17.4586V13.6986L17.458 13.6984C17.6293 13.6984 18.0007 13.4658 18.0007 13.0007C18.0007 12.5355 17.6293 12.3029 17.458 12.3029L13.6979 12.3031V8.54297C13.6979 8.3717 13.4653 8.00028 13.0002 8.00029C12.535 8.00031 12.3024 8.37175 12.3024 8.54301V12.3031L8.5423 12.3033C8.37105 12.3033 7.9996 12.5358 7.9996 13.001C7.9996 13.4662 8.37105 13.6988 8.5423 13.6988L12.3024 13.6986V17.4588C12.3024 17.63 12.535 18.0014 13.0002 18.0014C13.4654 18.0014 13.6979 17.6299 13.6979 17.4586Z" fill="white"/>
</svg>
