<svg width="26" height="26" viewBox="0 0 26 26" fill="none" xmlns="http://www.w3.org/2000/svg">
<circle cx="13" cy="13" r="13" fill="white"/>
<path d="M16.6456 15.6596L13.9869 13.0009L16.6456 10.342C16.7667 10.2208 16.8648 9.79374 16.5359 9.46481C16.207 9.13589 15.7799 9.23407 15.6588 9.35518L13.0001 12.0141L10.3413 9.3553C10.2202 9.23418 9.7931 9.13602 9.4642 9.46494C9.13531 9.79386 9.23347 10.221 9.35457 10.3421L12.0134 13.0009L9.35465 15.6598C9.23357 15.7809 9.13537 16.208 9.46431 16.5369C9.79324 16.8659 10.2203 16.7677 10.3414 16.6466L13.0002 13.9877L15.659 16.6465C15.78 16.7676 16.2071 16.8658 16.5361 16.5368C16.865 16.2079 16.7667 15.7807 16.6456 15.6596Z" fill="#639A88"/>
</svg>
