<svg width="281" height="30" viewBox="0 0 281 30" fill="none" xmlns="http://www.w3.org/2000/svg">
<mask maskUnits="userSpaceOnUse" x="0" y="0" width="0" height="0" fill="black">
<rect fill="white" width="0" height="0"/>
</mask>
<path d="M0.585787 13.5858C-0.195262 14.3668 -0.195262 15.6332 0.585787 16.4142L13.3137 29.1421C14.0948 29.9232 15.3611 29.9232 16.1421 29.1421C16.9232 28.3611 16.9232 27.0948 16.1421 26.3137L4.82843 15L16.1421 3.68629C16.9232 2.90524 16.9232 1.63891 16.1421 0.857866C15.3611 0.0768179 14.0948 0.0768178 13.3137 0.857866L0.585787 13.5858ZM280.414 16.4142C281.195 15.6332 281.195 14.3669 280.414 13.5858L267.686 0.857888C266.905 0.0768399 265.639 0.0768398 264.858 0.857888C264.077 1.63894 264.077 2.90527 264.858 3.68631L276.172 15L264.858 26.3137C264.077 27.0948 264.077 28.3611 264.858 29.1422C265.639 29.9232 266.905 29.9232 267.686 29.1422L280.414 16.4142ZM2 17L279 17L279 13L2 13L2 17Z" fill="#ECF2F9" mask="url(#)"/>
</svg>
